<?xml version="1.0"?>
<svg xmlns:rdf="http://www.w3.org/1999/02/22-rdf-syntax-ns#" xmlns="http://www.w3.org/2000/svg" xmlns:cc="http://creativecommons.org/ns#" xmlns:dc="http://purl.org/dc/elements/1.1/" xmlns:svg="http://www.w3.org/2000/svg" id="svg2590" viewBox="0 0 1111.5 831.85" version="1.0">
  <g id="layer1" transform="translate(407.74 -86.474)">
    <path id="path2650" d="m-406.59 914.46c-2.14-6.45-1.04-189.37 1.24-206.79 4.62-35.27 11.93-65.53 21.49-88.94 12.33-30.19 29.17-62.51 40.14-77.02 3.22-4.25 12.18-16.21 19.92-26.56 13.53-18.11 27.57-31.73 53.58-51.99 5.67-4.42 13.8-11.33 18.05-15.35 4.26-4.02 10.84-9.43 14.62-12.03 3.79-2.6 10.16-6.96 14.16-9.69s11.28-9.56 16.17-15.18c4.88-5.62 9.39-10.22 10.02-10.22 3.09 0 12.7 11.99 19.08 23.77 12.66 23.42 24.53 60.97 31.1 98.33 2.79 15.9 3.45 26.95 3.36 56.25l-0.12 36.47 12.45 0.51c11.46 0.46 12.49 0.81 13 4.41 0.64 4.51-10.75 25.92-14.57 27.38-1.4 0.54-4.55 0.06-6.99-1.05-3.02-1.37-5.02-1.46-6.2-0.28s-0.68 2.12 1.55 2.93c8.32 2.98 9.18 9.24 1.28 9.24-3.41 0-4.03 0.65-3.17 3.36 0.59 1.84-0.03 5.52-1.37 8.17-1.34 2.64-2.08 5.78-1.66 6.96s-0.09 2.15-1.14 2.15c-1.81 0-3.27 2.83-6.01 11.6-1.15 3.71-0.8 3.86 8.8 3.75 5.51-0.06 14.51-0.94 20.02-1.96 8.67-1.6 10.39-1.46 12.89 1.04 1.85 1.85 2.25 3.34 1.13 4.12-2.47 1.71-7.7 19.31-7.7 25.88 0 5.44 0.01 5.44 9.29 5.44h9.28l6.194 12.88c3.407 7.08 6.195 13.24 6.195 13.68s2.164 4.52 4.808 9.05c2.643 4.54 6.19 11.92 7.881 16.41 1.69 4.5 3.378 8.17 3.75 8.17 0.371 0 3.155-1.5 6.185-3.35 3.03-1.84 6.144-2.95 6.92-2.48 2.732 1.69 1.365 7-2.813 10.92-3.952 3.72-4.064 4.28-1.726 8.8 2.706 5.24 2.31 5.86-6.026 9.44-3.472 1.48-2.208 1.73 6.871 1.31 6.118-0.27 24.281-0.79 40.36-1.14 24.236-0.53 31.515-1.31 42.564-4.59 14.036-4.17 15.091-5.42 11.821-14.07-0.829-2.19-1.991-9.39-2.583-16.01-2.116-23.69-3.252-29.19-6.495-31.49-2.168-1.53-3.173-4.39-3.173-9.03 0-3.73-0.486-6.78-1.08-6.78-0.593 0-6.204 3.78-12.468 8.39-14.472 10.66-30.962 19.92-32.534 18.27-0.666-0.69 0.251-2.14 2.038-3.21 18.581-11.14 43.218-29.78 42.764-32.36-0.231-1.31 1.896-3.25 4.726-4.32 5.731-2.16 7.87-5.88 5.996-10.41-0.844-2.05-1.502-2.32-2.047-0.86-1.439 3.85-3.658 2.27-4.823-3.44-1.537-7.53-7.546-33.35-9.541-40.99-1.3887-5.32-2.3035-6.16-6.7026-6.16-2.802 0-4.7854 0.5-4.4078 1.11 0.37776 0.61-4.493 6.48-10.824 13.04s-15.38 16.57-20.11 22.25c-4.729 5.67-9.012 10.7-9.517 11.18-0.505 0.47-3.852 4.49-7.438 8.93-4.962 6.15-8.645 8.77-15.419 10.98-4.895 1.6-9.201 3.17-9.569 3.49-0.369 0.32 3.817 8.15 9.301 17.39 15.228 25.68 12.782 23.84 22.122 16.7 4.432-3.38 8.92-5.86 9.973-5.51s-1.489 3.25-5.648 6.45c-4.16 3.19-8.206 6.35-8.992 7.02-0.786 0.66 0.176 4.35 2.137 8.2 5.869 11.5 0.888 9.83-5.439-1.83-3.215-5.93-11.011-19.19-17.325-29.48-6.313-10.29-11.479-19.93-11.479-21.41 0-1.87 0.553-2.15 1.783-0.92 2.83 2.83 18.828-5.64 25.94-13.74 5.339-6.07 5.854-7.35 3.613-8.99-2.17-1.59-1.733-2.09 2.591-2.95 3.405-0.68 7.158-3.6 10.86-8.44 3.112-4.06 10.744-12.63 16.961-19.03s11.312-12.86 11.323-14.36c0.0125-1.87 4.0748-4.03 12.977-6.9 8.599-2.77 16.313-6.81 22.933-12 5.486-4.31 9.639-8.17 9.229-8.58-1.483-1.48-16.494 8.13-19.24 12.32-2.532 3.86-7.547 4.47-5.17 0.63 1.327-2.15 0.083-2.01-13.104 1.48-6.2212 1.64-13.679 4.91-16.574 7.26s-13.089 10.39-22.654 17.87c-9.565 7.47-17.391 14.56-17.391 15.74 0 2.55-13.984 7.64-20.98 7.64-7.445 0-9.149 5.4-6.762 21.45 2.347 15.78 2.4 18.1 0.412 18.1-1.997 0-3.607-6.61-5.231-21.49-1.985-18.19-1.138-19.26 18.803-23.87 2.365-0.55 16.825-10.96 32.135-23.15 17.328-13.8 29.912-22.57 33.337-23.26 8.0686-1.61 17.563-7.88 15.607-10.3-0.876-1.08-1.597-3.91-1.604-6.27-0.006-2.37-0.802-10.49-1.77-18.06-0.9676-7.57-1.8676-18.74-2-24.83-0.1324-6.1-0.5776-11.63-0.9894-12.29-0.4118-0.67-3.6549-0.54-7.2069 0.29-26.895 6.24-68.785-6.26-88.884-26.53-9.713-9.79-19.891-27.83-23.931-42.4-3.11-11.21-7.05-45.41-5.65-49.05 2.05-5.34-1.82-2.05-10.04 8.54-4.7 6.06-9.14 10.64-9.87 10.19-1.89-1.17 2.88-8.23 15.32-22.66 5.96-6.91 10.83-13.35 10.83-14.33 0-0.97-5.08-6.92-11.29-13.23-13.94-14.15-26.31-38.12-19.66-38.12 0.94 0 1.72 1.03 1.72 2.3 0 6.24 11.21 24.02 20.21 32.04 13.97 12.45 19.75 14.85 35.333 14.71 20.274-0.18 25.159-5.33 20.911-22.06-0.95-3.74-0.337-5.76 2.745-9.04 3.813-4.06 3.845-4.31 0.798-6.54-1.938-1.42-2.749-3.42-2.085-5.15 0.884-2.3-0.07-2.82-5.146-2.82-5.929 0-6.094 0.15-3.386 3.14 4.184 4.62 3.465 6.26-1.363 3.09-2.315-1.52-5.411-2.3-6.879-1.73-3.492 1.34-3.379-1.26 0.34-7.79 2.979-5.24 5.589-6.91 5.589-3.59 0 0.97 4.858 1.72 11.134 1.72 10.704 0 11.24-0.21 13.882-5.32 3.27-6.32 2.158-11.73-1.745-8.49-3.262 2.71-6.969 0.62-4.399-2.48 2.574-3.1 12.429-4.85 13.9-2.47 1.563 2.52 8.502-1.03 8.502-4.36 0-1.3-4.569-6.76-10.153-12.12-7.065-6.79-10.483-11.51-11.238-15.54-0.992-5.29-1.737-5.88-8.668-6.92-7.901-1.18-19.621-0.38-26.263 1.8-6.471 2.12-4.339-1.67 3.44-6.12 5.86-3.35 9.743-4.18 19.592-4.19h12.284l-3.129-6.14c-1.722-3.37-4.273-7.08-5.669-8.24-1.397-1.16-5.06-6.26-8.139-11.35-7.459-12.3-12.898-13.88-42.588-12.39-19.24 0.98-28.9 2.55-42.86 7.02-2.13 0.68-3.87 0.53-3.87-0.33 0-4.85 30.17-10.68 55.69-10.76 19.135-0.06 19.231-1.02 0.69-6.95-7.74-2.47-15.7-3.47-28.07-3.53-19.61-0.09-27.71 1.1-38.32 5.63-6.74 2.87-7.38 2.9-6.88 0.33 1.43-7.34 37.28-12.59 62.05-9.08 14.01 1.98 30.722 8.65 38.247 15.27 1.892 1.67 4.794 3.51 6.449 4.09 1.656 0.59 3.01 2.03 3.01 3.21s4.063-1.75 9.029-6.52c12.744-12.23 32.847-26.85 46.255-33.65l11.431-5.8-2.5227-4.82c-3.9319-7.5-7.0013-17.24-6.1803-19.61 1.0614-3.06 14.384-2.7 18.971 0.51 3.064 2.15 3.619 2.2 2.867 0.24-1.41-3.68-8.6137-6.34-17.161-6.34-5.66 0-7.658-0.67-7.658-2.58 0-1.8 1.816-2.58 6.0196-2.58 3.3104 0 6.019-0.26 6.019-0.59s-2.349-7.1-5.2201-15.05c-6.1695-17.08-10.258-33.85-10.258-42.07 0-4.77-0.667-5.92-3.439-5.92-5.696 0-4.146-6.89 4.47-19.88 4.351-6.56 9.1877-13.17 10.749-14.688 4.5087-4.378 24.39-10.953 33.793-11.175 4.729-0.112 10.265-0.769 12.302-1.462 2.891-0.982 3.962-0.446 4.877 2.439 1.132 3.566 1.333 3.594 5.631 0.777 4.29-2.81 4.575-2.775 7.591 0.95 1.724 2.128 3.134 3.128 3.134 2.221 0-2.06 13.696-7.572 15.715-6.324 0.815 0.504 1.482 2.47 1.482 4.37 0 2.572 0.809 3.197 3.166 2.449 2.177-0.691 4.486 0.588 7.39 4.093 2.322 2.8 6.361 5.91 8.975 6.9 2.916 1.11 4.276 2.58 3.526 3.8-0.77 1.24-0.48 1.52 0.77 0.75 3.58-2.21 8.54 0.73 15.76 9.35 5.9 7.05 7.35 10.29 8.63 19.33 0.85 5.97 3.92 15.86 6.82 21.97l5.28 11.11-0.7-12.59c-0.39-6.93-1.58-13.47-2.64-14.53-1.45-1.45-1.95-1.19-1.95 0.98 0 1.61-0.77 2.92-1.71 2.92-0.95 0-1.73-2.51-1.74-5.59-0.01-3.07-0.5-8.49-1.09-12.04-1.54-9.32 1.71-8.06 6.22 2.42 6.57 15.27 8.71 24.26 7.6 31.9-1.24 8.6-1.67 8.43 24.26 9.8 9.46 0.5 24.16 2.11 32.67 3.59 39.83 6.93 47.37 8.35 60.66 11.46 26.36 6.16 50.78 18.53 63.78 32.31 11.49 12.17 24.32 28.92 24.32 31.72 0 1.58 2.32 7.47 5.16 13.09s5.16 11.07 5.16 12.1 2.04 6.19 4.54 11.47c5.35 11.31 11.64 33.39 15.33 53.82 8.02 44.45 9.53 55.16 11.28 80.13 2.35 33.56 1.35 52.11-3.38 62.99-4.09 9.42-14.45 21.2-26.24 29.86-7.66 5.62-11.37 6.88-21.8 7.4-3.53 0.17-3.72 0.59-1.86 4.06 1.13 2.13 8.75 11.24 16.92 20.24 11.5 12.66 16.98 20.54 24.22 34.82 6.41 12.62 10.3 18.45 12.31 18.45 3.72 0.01 7.11 6.14 5.92 10.69-0.49 1.9 0.75 6.85 2.77 11.01 2.82 5.8 4.4 7.33 6.77 6.58 1.7-0.54 3.09-0.22 3.09 0.71s-0.93 2-2.06 2.38c-1.39 0.46-0.8 2.46 1.84 6.16 3.13 4.4 4.73 5.27 8.08 4.43 2.54-0.64 4.18-0.3 4.18 0.86 0 1.05-0.97 1.92-2.15 1.93-1.56 0.02-1.49 0.44 0.22 1.53 1.3 0.82 1.86 2.33 1.23 3.34-1.08 1.75 6.68 14 21.95 34.66 3.85 5.2 7.21 9.78 7.48 10.16 0.27 0.39 2.04-0.7 3.94-2.41 2.73-2.48 3.45-2.61 3.45-0.62 0 1.37-0.85 3.35-1.88 4.38-1.36 1.36-1.36 2.85 0 5.39 2.61 4.89 2.34 6.26-0.75 3.7-3.68-3.06-4.92-1.03-2.85 4.66 0.97 2.66 1.83 3.87 1.9 2.68 0.07-1.18 1.22-2.14 2.56-2.14 2.8 0 5.46-8.35 13.14-41.28 2.98-12.77 6.44-25.17 7.69-27.56 1.26-2.39 3.54-10.9 5.08-18.92 1.55-8.01 3.48-16.22 4.31-18.24 1.27-3.12 0.99-3.55-1.81-2.81-1.83 0.47-3.32 0.03-3.32-0.99s3.12-2.69 6.93-3.72c6.95-1.87 7.96-5.77 1.25-4.8-5.46 0.79-5.54-3.25-0.12-6.19 2.66-1.44 3.77-2.65 2.47-2.69-1.8-0.05-2.1-1.73-1.27-6.94 0.61-3.79 0.66-6.88 0.12-6.88-0.53 0-7.37 2.64-15.19 5.88-7.81 3.24-17.25 6.43-20.97 7.1-3.71 0.67-8.86 2.43-11.43 3.92-2.57 1.48-5.12 2.25-5.66 1.71s2.21-6.09 6.12-12.32c3.91-6.24 9.26-18.13 11.88-26.44 2.63-8.31 6.46-19.29 8.52-24.4l3.75-9.28-15.42 0.99c-13.15 0.86-15.57 0.6-16.47-1.75-0.97-2.52 1.52-5.51 4.65-5.58 0.71-0.01 8.44-6.8 17.19-15.08s18.9-17.41 22.56-20.3l6.65-5.24-2.2-9.85c-1.22-5.41-2.66-9.59-3.21-9.29-10.92 6.01-19.91 8.81-30.24 9.45-10.49 0.64-12.67 0.25-16.89-3.08-4.27-3.37-4.71-4.58-3.74-10.35 0.9-5.31 0.42-7.23-2.59-10.24-2.04-2.03-3.32-4.71-2.84-5.95 0.47-1.23-1.4-4.41-4.17-7.06-4.95-4.74-6.61-9.34-3.39-9.34 0.91 0 4.5 1.94 7.98 4.3 3.49 2.36 7.68 4.3 9.33 4.3 1.64 0 3.97 1.18 5.17 2.63 1.8 2.17 1.59 3.3-1.17 6.45-2.23 2.54-3.5 6.81-3.77 12.74-0.49 10.33 1.86 12.57 13.11 12.57 15.25 0 29.9-7.27 46.35-23.01 4.94-4.73 9.57-8.01 10.29-7.29 0.73 0.72-3.18 5.63-8.68 10.91-9.96 9.58-9.99 9.63-8.89 17.59 1.74 12.65 2.25 12.93 14.79 7.97 6.06-2.4 14.03-4.64 17.71-5 5.32-0.5 7.22-1.66 9.27-5.63 2.77-5.36 12.19-18.05 14.73-19.84 0.87-0.62 0.44-4.34-1-8.6-1.93-5.68-3.34-7.4-5.8-7.06-23.29 3.19-32.54 3.56-35.01 1.41-2.28-1.99-8.95-2.46-14.68-1.02-0.95 0.23-6.03 0.34-11.29 0.22-9.25-0.19-9.7-0.42-13.33-6.88-3.97-7.07-4.81-16.11-2.16-23.1 1.44-3.78 0.18-5.69-12.46-18.87-13.71-14.28-14.24-14.64-20.69-13.75-6.4 0.88-6.59 1.09-5.48 6.29 3.03 14.24 2.97 15.67-0.77 20.43-4.54 5.77-18.38 15.52-20.86 14.69-0.99-0.33 2.9-4.25 8.65-8.72 9.13-7.09 10.46-8.86 10.46-13.93 0-11.47-1.85-16.55-6.02-16.55-4.11 0-6.58-4.44-8.42-15.08-1.1-6.43 3.4-12.44 9.32-12.44 2.37 0 5.63-3.33 10.21-10.42 3.71-5.73 9.34-12.5 12.51-15.05 3.18-2.54 7.63-6.36 9.89-8.49 2.27-2.13 6.68-5.61 9.8-7.74s5.69-4.89 5.69-6.13c0.01-1.45 1.2-1.89 3.31-1.22 1.81 0.57 3.79 0.25 4.39-0.73 1.33-2.16 16.28-6.56 26.45-7.79 4.12-0.5 8.02-1.24 8.67-1.64s6.52-0.07 13.03 0.74c22.51 2.79 56.34 23.2 65.08 39.27 9.47 17.39 5.89 35.1-13.24 65.55-7.2 11.46-13.09 21.27-13.09 21.8s-1.54 2.91-3.42 5.3c-1.87 2.39-2.98 5.05-2.44 5.91 0.53 0.86-0.7 2.92-2.74 4.57-2.86 2.31-3.43 4.06-2.52 7.69 1.4 5.59 4.26 5.98 8.62 1.16 1.75-1.94 10.36-8.96 19.12-15.6 8.76-6.65 17.61-14.8 19.66-18.12 3.26-5.27 4.04-5.71 6.23-3.52 1.86 1.86 2.05 3.33 0.73 5.73-0.98 1.77-3.1 7.48-4.71 12.68s-4.36 12.16-6.11 15.45c-1.75 3.3-3.18 6.64-3.18 7.43 0 2.97 28.3-13.76 36.33-21.48 7.65-7.35 8.53-7.77 10.1-4.84 2.88 5.4 1.96 9.59-3.48 15.68-2.85 3.2-8.99 12.78-13.64 21.3-9.87 18.06-18.63 28.85-28.54 35.13l-7.09 4.5 8.26 14.58c4.54 8.02 9.79 16.9 11.67 19.74 1.88 2.83 4.7 8.25 6.26 12.03 1.56 3.79 6.34 14.23 10.61 23.22 14.17 29.79 34.92 95.25 43.62 137.58 1.84 8.99 3.78 17.69 4.29 19.35 0.52 1.65 0.12 3.01-0.89 3.01s-1.84-1.16-1.84-2.58c0-6.84-4.74-1-13.88 17.11-3.8 7.52-7.69 14.62-8.64 15.76-1.99 2.4 0.1 3.22 12.29 4.87 6.82 0.92 8.32 0.52 11.79-3.18 3.65-3.88 3.88-5.2 2.8-15.98-0.97-9.61-0.39-14.87 3.18-28.97 5.82-22.93 20.31-63.18 24.5-68 1.3-1.49 2.36-3.62 2.36-4.73 0-1.1 0.86-2.01 1.92-2.01 1.15 0 1.5 1.54 0.87 3.87-0.58 2.13-3.43 15.48-6.34 29.66-2.9 14.19-7.89 37.8-11.08 52.46-3.2 14.66-6.22 30.91-6.71 36.11-2.52 26.28-4.44 69.96-3.63 82.74 2.11 33.59 7.14 76.68 8.77 75.06 0.35-0.36-0.08-7.18-0.97-15.16-5.43-48.94-5.1-99.39 0.98-147.8 4.97-39.61 18.45-104.9 21.66-104.9 0.98 0 1.41 0.97 0.96 2.15-0.44 1.18-2.51 10.02-4.6 19.63-2.83 13.06-3.39 18.95-2.2 23.26 1.81 6.54 1.74 3.37 2.8 131.23 0.44 52.02 1.03 96.13 1.33 98.03 0.51 3.23-0.75 3.51-20.96 4.62-34.84 1.92-91.04 2.14-130.7 0.51-20.33-0.84-48.97-1.27-63.63-0.95-14.66 0.31-69.61 0.6-122.1 0.65-52.5 0.05-110.54 0.12-128.98 0.16s-39.15 0.03-46-0.01c-67.81-0.4-88.27-0.39-94.159 0.07-9.21 0.71-78.499 2.4-146.18 3.55-150.42 2.57-187.07 3.07-267.03 3.65l-86.46 0.63-1.28-3.86zm196-4.06c0.63-0.39 1.66-3.21 2.29-6.27 0.62-3.07 3.45-13.31 6.28-22.77 7.56-25.24 11.35-38.69 10.91-38.69-0.21 0-5.72 2.35-12.24 5.23-6.51 2.89-13.39 5.91-15.28 6.73s-7.61 2.76-12.7 4.33c-18.52 5.69-27.46 9.71-29.84 13.44-3.58 5.59-15.07 34.74-15.07 38.23 0 2.79 2.24 2.91 32.24 1.74 17.74-0.69 32.77-1.58 33.41-1.97zm80.53 0.33c27.9-0.48 77.427-1.29 110.06-1.8 32.631-0.51 76.742-1.47 98.024-2.13 35.896-1.12 73.456-1.21 268.17-0.66 40.14 0.11 73.64-0.45 74.44-1.26 1.36-1.36 5.85-46.91 6.89-69.95 0.26-5.68 1.2-10.32 2.09-10.32 2.22 0 1.23 33.17-1.74 58.47-1.34 11.35-2.44 21.22-2.44 21.93-0.01 0.71 5.01 1.29 11.16 1.29 7.81 0 11.17-0.65 11.15-2.15-0.05-3.02-7.41-44.67-12.11-68.47l-3.92-19.88-14.01 0.73c-11.64 0.61-14.51 0.23-16.98-2.24-4.52-4.52-2.54-6.82 6.34-7.4 5.7-0.38 8.03-1.27 8.03-3.06 0-1.98-1.99-2.43-8.94-2.06-10.31 0.55-9.08 2.54-15.36-24.86-5.92-25.78-5.85-18.51 0.09 10.34 2.91 14.14 5.3 26.01 5.3 26.38 0 0.36-11.42 0.68-25.37 0.7-20.88 0.04-76.18 1.39-101.9 2.5-5.83 0.25-5.88 0.31-1.72 2.04 2.78 1.14 31.68 1.69 81.43 1.53 56.42-0.18 76.96 0.27 76.48 1.69-0.46 1.39-29.31 2.14-102.8 2.68-56.19 0.41-114.15 1.47-128.81 2.35-32.56 1.95-93.97 1.53-93.97-0.65 0-0.9 12.47-1.43 29.24-1.24 17.42 0.19 30.27-0.38 31.81-1.41 1.79-1.21-7.18-1.81-29.23-1.96-37.343-0.27-37.673-0.24-40.819 2.9-3.277 3.28-5.089 3.38-68.304 3.84-26.945 0.19-36.369-0.28-37.378-1.87-1.047-1.65-1.354-1.62-1.375 0.13-0.021 1.8-7.054 2.08-35.711 1.4-19.626-0.46-46.712-0.89-60.193-0.96-15.11-0.07-24.5-0.77-24.5-1.83 0-0.95 3.29-1.75 7.31-1.77 5.83-0.05 6.69-0.41 4.27-1.82-1.67-0.97-5.54-1.31-8.6-0.75s-14.97 1.49-26.47 2.06l-20.9 1.04-6.21 21.69c-3.41 11.92-8.9 30.58-12.2 41.46s-6 20.69-6 21.81c0.01 2.43 4.8 3.25 16.34 2.77 4.73-0.2 31.43-0.75 59.34-1.23zm807.26-4.64c0.32-0.36-0.64-7.32-2.14-15.46l-2.72-14.81-42.14 0.5-42.13 0.5-4.58 14.68c-2.51 8.07-4.11 15.14-3.54 15.71 1.1 1.09 96.25 0 97.25-1.12zm-97.75-12.69c2.05-6.62 4.26-14.97 4.9-18.54 1.13-6.28 1.02-6.47-3.12-5.43-5.59 1.4-9.02-0.57-5.69-3.28 2.1-1.71 2.11-4.21 0.03-18.11-2.17-14.49-2.09-19.53 0.26-17.18 0.45 0.44 1.73 8.31 2.86 17.48 1.13 9.18 2.5 16.66 3.06 16.64 1.27-0.05 6.23-1.29 40.33-10.11 15.01-3.87 28.87-7.05 30.82-7.05 7.07 0 0.55 2.68-17.39 7.13-21.6 5.36-16 6.09 13.47 1.74l19.77-2.92-0.17-10.28c-0.09-5.66-0.28-16.38-0.43-23.83l-0.26-13.55-6.45 1.01c-3.54 0.56-9.54 0.17-13.32-0.87-3.79-1.03-9.74-1.99-13.23-2.12-8.88-0.34-9.86-2.25-2.7-5.24 5.48-2.29 6.62-4 11.22-16.79 7.77-21.61 7.99-22.5 5.32-21.63-3.63 1.18-28.78 33.11-40.36 51.24-5.74 8.99-12.3 20.91-14.58 26.51-2.58 6.33-4.37 8.99-4.75 7.05-2-10.29 31.6-61.52 56.38-85.97 6.68-6.59 12.15-12.59 12.15-13.32 0-0.74-2.98-1.34-6.62-1.34-11.54 0-20.82-4.59-15.69-7.77 0.98-0.6 4.79-7.1 8.49-14.45 3.69-7.34 8.7-15.71 11.13-18.6 2.95-3.51 4.41-7.3 4.41-11.45 0-3.41-0.42-6.2-0.95-6.2-0.52 0-3.81 1.96-7.31 4.35-3.49 2.4-10.42 5.55-15.38 7-8.6 2.52-8.97 2.88-7.74 7.26 2.02 7.22 0.95 20.26-2.04 24.83-2.57 3.92-2.46 4.53 2.02 10.97 7.05 10.11 9.05 13.98 9.05 17.52 0 4.24-14.93 12.34-22.75 12.34-5.5 0-6.11 0.54-8.13 7.28-2.76 9.23-16.7 38.59-18.99 40.01-3.25 2-1.72-3.16 4.02-13.62 6.51-11.85 13.92-32.79 12.45-35.17-0.54-0.87 0.37-2.11 2.02-2.75 2.82-1.09 2.8-1.31-0.21-3.52-2.79-2.06-3.85-1.89-8.16 1.31-2.73 2.01-4.97 4.65-4.97 5.86 0 3.14-6.63 6.35-9.13 4.43-3.36-2.59-12.41-1.57-12.04 1.35 0.17 1.41 3.27 10.81 6.87 20.9 3.61 10.1 5.93 18.97 5.18 19.73-0.76 0.76-1.98 0.41-2.71-0.77-0.93-1.5-1.95-0.77-3.41 2.42-3.21 7.05-4.16 3.71-1.11-3.92 2.58-6.47 2.51-7.25-1.78-18.64-2.46-6.53-6.29-15.78-8.52-20.54-7.65-16.36-12.32-27.59-13.61-32.73-0.71-2.83-2.11-6.15-3.13-7.37-1.01-1.22-3.72-7.64-6.02-14.28-3.18-9.18-3.71-12.63-2.23-14.42 1.53-1.83 1.18-2.59-1.58-3.46-1.94-0.62-3.53-2.23-3.53-3.59 0-1.35-0.58-2.45-1.29-2.44-0.71 0.02-11.93 21.49-24.95 47.73-32.09 64.69-51.59 101.39-52.47 98.75-0.49-1.49-1.95-0.87-4.55 1.94l-3.82 4.12 2.94 17.87c1.62 9.83 3.47 22.28 4.1 27.66 1.06 9 1.53 9.83 5.78 10.32 2.54 0.3 29.34 0.54 59.57 0.54h54.95l3.72-12.04zm-130.69-18.33c-4.48-28.55-7.45-42-8.96-40.49-0.45 0.46 1.08 10.78 3.41 22.94 2.33 12.17 5.17 27.78 6.29 34.7 1.13 6.92 2.42 12.22 2.87 11.77 0.44-0.45-1.18-13.46-3.61-28.92zm220.42-2.89c2.13-0.15 3.87-1.02 3.87-1.92 0-1.78-26.55-0.61-35.25 1.56-4.42 1.1 17.73 1.35 31.38 0.36zm-22.05-4.7c12.7-1.37 23.53-2.93 24.06-3.47 0.54-0.53-3.66-0.53-9.33 0.02-23.73 2.3-50.58 4.71-60.98 5.5-6.12 0.46-11.54 1.28-12.04 1.82-1.2 1.29 29.22-0.73 58.29-3.87zm7.46-5.81c13.83-1.18 18.48-2.37 16.6-4.24-0.74-0.74-50.24 5.3-54.89 6.69-2.56 0.76 9.44 0 38.29-2.45zm-709.36-37.96c-5.452-1.58-18.523-2.44-27.138-1.79-5.383 0.4-5.568 0.57-1.747 1.57 6.367 1.67 34.633 1.88 28.885 0.22zm69.523-6.23c6.111-4.23 9.482-7.49 7.754-7.49-1.941 0-20.348 6.89-25.446 9.53-5.2463 2.71-5.4998 3.16-2.4293 4.24 4.6236 1.63 12.057-0.69 20.121-6.28zm19.73 3.59c9.186-6.23 9.189-6.36 0.121-5.66-8.355 0.64-10.894-0.88-4.729-2.84 1.892-0.6 3.439-1.84 3.439-2.76 0-1.95-6.098 0.96-7.814 3.74-0.62 1.01-4.262 4.1-8.093 6.87l-6.965 5.05h8.78c6.582 0 10.403-1.1 15.261-4.4zm151.03 2.7c9.78-0.02 10.33-0.25 10.56-4.32 0.24-4.06-0.24-4.3-8.6-4.32-4.86-0.01-11.74-0.5-15.29-1.08-6.24-1.04-6.45-0.91-6.45 4.03 0 6.25 1.45 7.87 5.98 6.65 1.91-0.51 8.12-0.95 13.8-0.96zm-277.74-3.5l12.898-3.33-15.478 0.78c-17.07 0.85-23.67 2.19-22.24 4.5 1.49 2.41 10.81 1.67 24.82-1.95zm80.827-1.6c4.2566-1.98 5.8043-3.2 3.4397-2.72-2.3647 0.48-17.456 0.98-33.535 1.11-30.367 0.25-30.154 0.85 1.72 4.83 14.647 1.84 18.433 1.41 28.375-3.22zm109.2-1.8c-4.697-2.02-6.019-2.02-6.019 0 0 0.95 2.129 1.66 4.73 1.6 4.189-0.11 4.339-0.29 1.289-1.6zm33.11 0.45c-4.5-0.35-11.85-0.35-16.34 0-4.49 0.36-0.82 0.65 8.17 0.65 8.98 0 12.66-0.29 8.17-0.65zm26.63 0.05c-2.14-0.41-5.23-0.39-6.88 0.04-1.64 0.43 0.11 0.76 3.89 0.75 3.79-0.02 5.13-0.38 2.99-0.79zm69.7-20.13c12.22-14.12 28.66-49.12 24.86-52.9-1.65-1.64-29.24-2.11-35.03-0.6-4.33 1.13-4.44 1.41-2.16 5.77 4.18 8.01 2.14 12.63-2.39 5.39-2.1-3.38-3.4-3.47-36.02-2.69-32.35 0.78-33.89 0.97-35.16 4.4-0.73 1.97-2.5 4.04-3.94 4.59-4.53 1.74-2.88 3.88 3.82 4.97 14.05 2.3 15.5 2.85 17.16 6.5 2.71 5.95 2.33 7.26-1.96 6.7-4.66-0.61-7.01 4.84-3.84 8.9 2.21 2.82 38.01 5 49.86 3.04l6.62-1.1 6.48-20.44c3.94-12.42 7.64-21.09 9.45-22.09 1.63-0.92 6.37-1.15 10.54-0.53 12.11 1.82 12.31 4.58 1.78 24.61-12.04 22.89-21.49 34.12-30.87 36.71-3.95 1.09-6.25 2.32-5.12 2.72 1.13 0.41 1.64 1.8 1.15 3.1-2.07 5.39 16.28-7.24 24.77-17.05zm-72.4-34.83c-1.7-1.69-1.39-7.45 0.39-7.45 1.53 0 3.62 4.04 3.62 7.02 0 1.84-2.35 2.09-4.01 0.43zm314.98 50.45c0.36-1.88-0.59-2.87-2.77-2.87-1.83 0-6.12-2.22-9.53-4.93-10.28-8.17-16.07-9.9-21.79-6.52-2.66 1.57-6.11 2.85-7.68 2.85-1.56 0-2.35 0.8-1.75 1.77 1.19 1.92 12.67 0.51 15.25-1.87 0.84-0.77 4.32 0.75 7.74 3.39 16.62 12.8 19.42 13.91 20.53 8.18zm-312.76-0.61c0.44-0.38-1.48-2.51-4.26-4.72-4.73-3.78-4.9-4.32-2.66-8.51 2.1-3.93 2.04-4.86-0.47-7.64-3.37-3.72-3.66-7.42-0.79-10.28 1.6-1.61-3.2-2.06-21.62-2.06-22.69 0-23.63 0.13-22.61 3.35 0.59 1.84-0.07 5.54-1.45 8.22-1.81 3.5-2.03 5.75-0.78 7.98 1.37 2.45 0.79 4.11-2.727 7.78-2.46 2.57-4.472 5.13-4.472 5.69s9.839 1.13 21.849 1.26c12.02 0.14 22.19 0.58 22.58 0.98 0.83 0.82 16.2-0.99 17.41-2.05zm522.19-3.51c-0.57-0.58-0.98 0.44-0.9 2.25 0.08 2.01 0.49 2.41 1.04 1.04 0.49-1.24 0.43-2.72-0.14-3.29zm-511.8 1.25c-3.33-2.15-5.16-2.15-5.16 0 0 0.95 1.74 1.71 3.87 1.69 3.13-0.02 3.38-0.34 1.29-1.69zm21.09 0.51c-2.11-0.41-5.98-0.42-8.6-0.02-2.61 0.39-0.88 0.73 3.85 0.74s6.87-0.31 4.75-0.72zm182.81-0.44l20.75-0.07-3.12-15.05c-10.51-50.57-19.14-93.51-20.17-100.39-1.14-7.56-4.82-14.99-10.02-20.21-1.3-1.3-1.97-3.42-1.48-4.69 0.49-1.28-0.25-4.86-1.65-7.95-2.46-5.42-2.54-5.08-2.09 9.44 0.54 17.14 0.08 17.7-13.94 16.89-7.11-0.4-7.47-0.2-6.52 3.58 0.55 2.21 1.14 10.44 1.31 18.28 0.26 12.12-0.18 14.61-2.89 16.59-2.79 2.04-3.22 5.03-3.42 23.58-0.21 19.64-2.07 51.3-3.45 58.84-0.55 2.98 0.38 3.14 12.67 2.22 7.3-0.55 22.61-1.03 34.02-1.06zm-273.66-11.07c-0.514-2.05 0.224-5.96 1.641-8.69 1.918-3.69 2.108-5.84 0.768-8.35-1.41-2.63-2.122-2.87-3.224-1.09-0.78 1.26-0.626 3.76 0.344 5.58 3.42 6.39-4.546 8.9-12.177 3.83-4.709-3.13-8.739-9.14-8.739-13.04 0-0.99 15.318-1.63 38.696-1.63 21.52 0 38.69-0.69 38.69-1.54 0-1.8-80.487-2.16-87.131-0.38-4.401 1.18-4.236 1.43 6.557 9.91 6.09 4.78 12.781 9.61 14.869 10.73 2.225 1.19 3.796 3.67 3.796 5.99 0 5.11 1.679 6.7 4.555 4.31 1.277-1.06 1.877-3.55 1.355-5.63zm106.61 3.26c1.42-1.89 2.62-4.21 2.65-5.16 0.09-2.84-49.9-1.78-51.72 1.1-4.47 7.05-2.45 7.64 25.47 7.56 18.94-0.05 21.25-0.4 23.6-3.5zm463.88-2.15c0.15-1.65 0.42-7.26 0.59-12.47 0.17-5.2 0.89-17.46 1.59-27.25l1.27-17.79-4.02 1.18c-5.84 1.7-10.46 8.04-14.08 19.32-1.75 5.46-5.48 15.71-8.27 22.77-4.77 12.07-4.9 12.99-2.07 15.05 1.69 1.24 7.76 2.2 13.85 2.2 9.08 0 10.9-0.49 11.14-3.01zm11.17-4.3c-0.48-1.18-0.87-0.21-0.87 2.15 0 2.37 0.39 3.33 0.87 2.15s0.48-3.12 0-4.3zm-257.71-6c-0.38-4.62-1.42-6.61-3.68-7.04-2.63-0.49-3.08 0.38-2.68 5.15 0.61 7.29 1.14 8.32 4.32 8.32 1.93 0 2.44-1.62 2.04-6.43zm-487.21 1.27c1.711-1.89 2.412-3.41 1.556-3.38-1.999 0.07-7.576 4.28-7.576 5.72 0 2.19 2.971 1.03 6.02-2.34zm746.75-17.62c-0.39-3.08-0.7-0.56-0.7 5.59 0 6.14 0.31 8.66 0.7 5.58 0.38-3.07 0.38-8.1 0-11.17zm-171.5-38.11c0-0.42-2.32 0.4-5.16 1.82-2.84 1.41-5.16 3.28-5.16 4.14 0 2.85-13.1 10.37-16.07 9.23-1.57-0.61-2.85-1.81-2.85-2.68 0-0.86-1.93-2.31-4.3-3.21-2.36-0.9-4.3-2.72-4.3-4.06 0-1.33-1.54-2.82-3.44-3.32-5.92-1.55-3.75-4.19 3.44-4.19 6.62 0 8.77 1.6 5.16 3.83-3.54 2.19-1.66 4.66 2.72 3.56 3.81-0.96 4.29-0.65 3.39 2.19-1.53 4.8 3.53 6.13 6.61 1.73 1.36-1.95 3.32-3.04 4.34-2.4 1.15 0.7 1.86-0.54 1.86-3.26 0-2.97 0.94-4.4 2.89-4.4 8.67 0 13.48-3.99 19.94-16.56l6.49-12.63-6.3 4.28c-4.04 2.74-8.7 4.28-13 4.28-4.86 0-6.95 0.82-7.65 3-1.75 5.49-4.92 11.59-6.67 12.86-2.25 1.64-6.13 0.38-20.21-6.54l-11.62-5.7 1.07 7.21c0.59 3.97 2.08 12.24 3.32 18.38s1.98 11.44 1.63 11.78c-2.09 2.09-3.98-3.13-5.95-16.41-1.23-8.32-2.91-16.67-3.73-18.57-1.15-2.64-1.3-2.24-0.65 1.72 0.48 2.84 1.74 12.51 2.82 21.5 2.56 21.31 2.92 24.47 3.09 27.31 0.1 1.78 1.91 2.14 7.17 1.44 10.26-1.38 17.03 1.43 17.1 7.1 0.05 3.19 3.69-2.58 12.04-19.06 6.59-12.99 11.98-23.96 11.98-24.37zm-107.14 43.62l5.15-1.8-2.67-12.82c-1.48-7.05-3.54-12.82-4.58-12.82-1.05 0-3.02-2.86-4.37-6.36-1.36-3.5-4.59-10.27-7.18-15.05s-6.76-13.15-9.28-18.61c-2.51-5.46-4.89-9.61-5.27-9.23s1.73 7.94 4.68 16.8 7.55 25.55 10.23 37.08c4.42 18.99 6.16 24.6 7.63 24.6 0.28 0 2.82-0.8 5.66-1.79zm186.25-12.73c0-2.76 0.93-3.94 3-3.77 2.09 0.16 3.18-1.22 3.56-4.49 0.57-4.93 2.68-6.15 4.77-2.75 0.88 1.41 1.78 1.22 3.16-0.66 1.06-1.45 3.44-2.93 5.29-3.29 2.42-0.46 3.94-3.04 5.45-9.23 1.14-4.72 2.88-11.67 3.86-15.46 2.41-9.34 2.22-15.52-0.26-8.6-5.31 14.8-27.82 38.26-34.64 36.12-9.11-2.84-11.39-2.95-11.39-0.55 0 4.21-3.62 6.59-7.14 4.71-3.65-1.95-3.95-1.07-1.32 3.83 1.8 3.38 1.95 3.38 5.41 0.32 3.52-3.11 3.55-3.09 2.41 1.58-0.68 2.82-0.44 4.73 0.61 4.73 0.96 0 1.75-0.78 1.75-1.72 0-3.08 3.44-1.81 3.49 1.29 0.05 2.86 0.17 2.86 2.34 0 2.96-3.91 3.88-3.8 5.03 0.6 1.2 4.6 4.62 2.63 4.62-2.66zm-468.43-2.68c-7.2-7.96-8.08-13.24-2.35-14.07 7.78-1.14 13.57 0.69 15.48 4.88 1.33 2.92 2.27 3.51 3.2 1.99 0.73-1.17 0.56-3.06-0.38-4.19-2.41-2.91-0.16-3.78 9.66-3.73 32.07 0.17 64.9-0.5 64.1-1.3-0.87-0.87-83.57-0.88-94.63-0.02-6.96 0.55-7.26 1.69-2.83 10.77 2.22 4.54 3.82 9.22 3.56 10.41-0.29 1.36 1.52 2.15 4.97 2.15h5.44l-6.22-6.89zm506.46-0.31c3.67-2.07 6.68-4.43 6.68-5.24 0-4.07-11.48-21.96-14.08-21.96-0.77 0-1.4 1.45-1.4 3.22s-1.55 8.06-3.44 13.98-3.44 11.44-3.44 12.26c0 2.8 8.97 1.51 15.68-2.26zm61.68-46.63c0.96-4.54 1.67-10.34 1.58-12.9-0.31-8.15-6.45 30.87-7.4 46.95-0.86 14.58-0.77 14.28 1.58-5.16 1.37-11.35 3.28-24.35 4.24-28.89zm-236 41c2.12-0.04 3.87-0.87 3.87-1.84 0-5.56-3.85-31.07-4.99-33.12-1.36-2.43-3.58 14.52-3.6 27.58-0.01 3.55-0.79 6.45-1.73 6.45-1.92 0-2.07-16.67-0.27-30.1l1.15-8.6-13.55-18.91c-15.38-21.47-24.19-32.77-29.63-38.01l-3.76-3.61-16.08 9.16c-14.89 8.48-19.98 12.68-15.39 12.68 1.02 0 1.83 1.35 1.79 3.01-0.07 2.88 31.26 66.12 32.26 65.12 1.24-1.24-6.87-40.2-9.07-43.56-2.92-4.48-3.09-5.65-0.8-5.65 3.8 0 7.45 9.61 10.55 27.79 1.81 10.59 3.47 19.39 3.69 19.56 0.23 0.17 3.17-0.03 6.55-0.46l6.13-0.76-3.16-19.88c-2.84-17.85-2.99-23.28-0.57-20.87 0.77 0.77 7.26 36.78 9.03 50.11l0.86 6.48 11.42-1.25c6.29-0.68 13.17-1.28 15.3-1.32zm156.92-0.17c0-1.48-0.77-2.21-1.72-1.62-0.94 0.58-1.72 1.79-1.72 2.68s0.78 1.62 1.72 1.62c0.95 0 1.72-1.21 1.72-2.68zm-224.14-4.63c-0.48-1.18-0.87-0.22-0.87 2.15 0 2.36 0.39 3.33 0.87 2.15 0.47-1.18 0.47-3.12 0-4.3zm-172.28-11.57c0.43-0.69-5-2.39-12.07-3.75-7.06-1.37-12.84-1.99-12.84-1.37s-7.56 1.58-16.79 2.14c-9.23 0.57-18.71 1.81-21.07 2.77-3.09 1.25 4.94 1.7 28.85 1.61 18.22-0.07 33.48-0.7 33.92-1.4zm353.09-9.13c5.39-2.37 11.55-4.83 13.69-5.47 4.73-1.41 7.48-6.52 12.35-22.91 3.45-11.62 3.52-12.93 1.05-17.89-3.33-6.66-3.34-13.26-0.04-17.63 3.86-5.11 3.08-9.22-3.68-19.41-3.42-5.14-6.7-11.14-7.31-13.33l-1.1-3.98-3.31 4.41c-1.81 2.42-2.43 3.86-1.37 3.21 1.95-1.21 15.68 14.55 16.05 18.41 0.56 5.92-0.95 11.17-4.59 15.99l-4.08 5.39 3.55 7.35c2.54 5.25 3.26 9.18 2.54 13.7-1.25 7.85-9.13 22.27-12.89 23.6-1.53 0.54-7.23 3.68-12.67 6.98-7.32 4.44-9.83 6.94-9.66 9.63l0.24 3.62 0.72-3.68c0.49-2.53 3.77-5.02 10.51-7.99zm-384.88-2.81c0-0.87 0.47-2.8 1.04-4.3 0.84-2.18-0.22-2.72-5.34-2.72s-6.18 0.54-5.34 2.72c0.57 1.5 1.04 3.43 1.04 4.3s1.93 1.58 4.3 1.58c2.36 0 4.3-0.71 4.3-1.58zm442.59-3.15c2.26-8.03 2.88-13.94 1.55-14.77-0.81-0.5-2.24 3.3-3.18 8.44-0.95 5.14-1.15 9.34-0.47 9.34 0.69 0 1.63-1.35 2.1-3.01zm-182.37-36.74c-4.55-6.05-11.76-16.2-16.02-22.54-4.26-6.35-8.51-11.55-9.46-11.55-0.94 0-3.18 1.11-4.97 2.46-3.08 2.34-2.65 3.22 8.66 17.58 6.54 8.31 15.35 20.05 19.56 26.09l7.67 10.98 1.42-6.01c1.3-5.5 0.72-6.95-6.86-17.01zm181.14-16.08c-0.9-1.86-1.81-8.94-2.03-15.75-0.22-6.8-0.94-13.24-1.61-14.32-0.66-1.07-0.33-3.01 0.75-4.31 1.34-1.62 1.39-2.69 0.14-3.47-1-0.61-1.34-3-0.76-5.31 0.68-2.72 0.32-4.19-1.04-4.19-1.15 0-1.64-1.16-1.1-2.58 1.12-2.91-3.2-3.64-4.94-0.83-1.67 2.71-4.26 0.21-3.05-2.95 0.7-1.83 0.4-2.39-0.86-1.61-1.15 0.71-3.05-0.94-4.64-4.01-1.48-2.87-3.1-5.22-3.59-5.22-1.38 0-9.22 9.26-9.28 10.96-0.03 0.83 1.1 0.55 2.5-0.62 4.4-3.65 7.15-0.78 15.6 16.25 7.05 14.21 8.21 18 8.29 27.21 0.07 7.68-0.85 12.29-3.28 16.39l-3.39 5.71 4.73 8.48c2.6 4.67 4.84 11 4.98 14.08 0.13 3.07 1.14-2.54 2.22-12.47 1.27-11.56 1.4-19.28 0.36-21.44zm-74.15 26.93c-0.53-0.53-1.92 0-3.09 1.17-1.68 1.7-1.49 1.9 0.97 0.97 1.69-0.65 2.65-1.61 2.12-2.14zm-51.01-7.36c7.02-5.59 8.83-8.06 8.83-12.07 0-3.79 2.35-7.48 9.44-14.8 12.86-13.28 15.35-20.39 14.17-40.48-0.74-12.5-4.54-30.03-7.27-33.57-0.2-0.26-2.22 0.27-4.48 1.18-2.27 0.9-3.17 1.69-2 1.75 2.89 0.15 6.35 8.96 8.96 22.82 1.73 9.17 1.74 13.39 0.06 20.64-3.21 13.85-4.82 17.4-9.56 21.14-13.87 10.94-14.8 12.09-15.11 18.7-0.35 7.57-4.67 11.61-18.95 17.77l-8.8 3.79 7.95 0.08c6.77 0.07 9.24-0.96 16.76-6.95zm61.63 2.43c0.51-1.33-0.37-3.84-1.95-5.59-2.27-2.51-2.63-5-1.7-11.97 1.2-9.04-0.35-11.26-3.9-5.59-1.91 3.06-1.48 6.87 2.13 18.73 0.67 2.2 0.3 4.93-0.84 6.31-1.67 2-1.37 2.26 1.66 1.47 2.02-0.53 4.1-2.04 4.6-3.36zm-524.01-4.66c0-4.86-4.542-8.47-9.191-7.3-4.954 1.24-5.615 3.78-2.671 10.24 1.797 3.94 2.155 4.03 6.879 1.67 2.741-1.37 4.983-3.44 4.983-4.61zm656.36 1.95c-0.48-1.18-0.87-0.22-0.87 2.15 0 2.36 0.39 3.33 0.87 2.15s0.48-3.12 0-4.3zm-45.42-3.47c5.44-2.85 9.88-5.81 9.88-6.59 0-2.14-14.82-10.36-21.35-11.84-5.63-1.27-5.81-1.13-6.81 4.92-0.57 3.43-1.04 9.53-1.05 13.57-0.02 7.14 0.11 7.31 4.71 6.23 2.6-0.61 9.18-3.44 14.62-6.29zm-113.04 0.4c2.64-5.12 2.62-5.18-0.82-3.03-1.93 1.21-3.52 3.56-3.52 5.22 0 4.38 1.27 3.74 4.34-2.19zm-183.86-9.55c1.53-6.1-0.89-37.15-3.11-39.82-4.12-4.96-12.48-1.39-29.93 12.75-7.55 6.12-11.21 7.55-7.34 2.86 2.14-2.59 2-2.67-1.51-0.8-2.13 1.14-3.87 2.74-3.87 3.56s4.39 3.97 9.75 7l9.74 5.5 3.22-4.05c1.77-2.23 6.06-8.88 9.54-14.8 5.94-10.1 9.02-13.14 9.02-8.9 0 1.01-2 5.26-4.45 9.43-2.44 4.18-5.59 11.67-6.99 16.65s-2.97 10.4-3.49 12.06c-0.82 2.62 0.3 3.01 8.68 3.01 8.92 0 9.71-0.33 10.74-4.45zm-20.97-5.36l2.76-8.1-6.61 6.81c-5.39 5.55-6.11 7.02-3.89 7.97 4.57 1.96 4.89 1.68 7.74-6.68zm222.64-8.31c1.96-3.75 9.58-14.17 16.93-23.16 7.36-8.98 18.78-23.49 25.39-32.24s12.61-15.91 13.33-15.91c2.18 0 1.48 2.89-1.27 5.16-3.12 2.6-3.14 3.42-0.11 7.42 2.25 2.96 2.84 2.85 12.23-2.15 5.42-2.9 11.3-5.27 13.06-5.27s3.2-0.44 3.2-0.98c0-0.53-2.62-8.85-5.82-18.48-6.27-18.91-22.6-52.77-25.43-52.77-0.96 0-3.71 1.55-6.12 3.44-2.87 2.26-6.97 3.44-11.96 3.44-6.65 0-7.94-0.64-10.51-5.22-2.19-3.89-3.8-4.97-6.37-4.25-1.89 0.53-6.99 1.42-11.32 1.98-7.15 0.93-8.23 0.58-11.61-3.71-2.05-2.61-3.73-6.48-3.73-8.61 0-3.94-3.78-5.91-11.46-5.96-2.51-0.02-4.26-1.57-5.37-4.75-1.64-4.73-1.64-4.73-2.99 2.15-0.75 3.78-2.39 9.37-3.66 12.41-2.46 5.88-3.08 10.42-1.16 8.5 0.63-0.63 2.84-0.04 4.91 1.31 2.06 1.36 6.59 2.99 10.05 3.64 6.69 1.26 13.88 8.37 12.39 12.26-0.47 1.23 0.6 3.02 2.38 3.97 1.78 0.96 4.45 2.94 5.92 4.41 2.03 2.03 3.48 2.24 6.04 0.87 4.11-2.2 6.68 0.7 2.64 2.96-2.51 1.41-2.5 2.31 0.14 10.38 2.05 6.27 3.71 8.72 5.72 8.45 1.56-0.2 3.22 0.4 3.69 1.35 0.47 0.94-0.8 1.95-2.83 2.24-2.67 0.38-3.92 2.05-4.53 6.02-0.46 3.02-0.09 6.42 0.82 7.56 0.92 1.14 1.18 3.59 0.59 5.45-0.59 1.85-0.2 3.91 0.86 4.56 1.14 0.71 1.47 3.06 0.81 5.74-2.11 8.55 2.1 1.39 9.46-16.1 7.85-18.65 8.1-19.1 9.56-17.64 0.55 0.54-2.11 8.41-5.9 17.48-3.79 9.08-6.61 16.5-6.25 16.5 0.35 0 3.67-5.61 7.38-12.47 19.47-36 21.5-39.18 23.61-37.07 0.37 0.37-4.04 9.16-9.81 19.52-5.76 10.36-16.04 28.9-22.84 41.2-6.79 12.3-14.48 26.1-17.09 30.67s-5.87 12.08-7.24 16.69-3.24 8.85-4.16 9.42-1.68 1.87-1.68 2.88c0 2.57 5.84-5.1 10.11-13.29zm-517.11 10.15c8.631-2.42 10.002-3.37 10.002-6.93 0-2.27-1.283-4.62-2.851-5.22-2.339-0.9-22.737 2.18-24.243 3.65-1.132 1.11 3.578 11.31 5.223 11.31 1.027 0 6.369-1.26 11.869-2.81zm618.76-15.67c-10.9-38.73-10.57-37.89-12.76-32.69-1.1 2.59-4.67 7.53-7.93 10.96-3.98 4.19-5.21 6.52-3.73 7.06 1.22 0.44 4.61 2.82 7.53 5.27l5.31 4.47-4.95 3.96c-2.72 2.18-5.86 3.96-6.99 3.96-1.13 0.01-2.43 0.63-2.9 1.39s1.63 1.37 4.67 1.37c5.74 0 20.89 6.46 22.94 9.78 2.9 4.7 2.3-3.1-1.19-15.53zm-259.65-14.41c0-1.28-10.59-17.77-12.97-20.19-0.56-0.57-28.31 15.24-28.31 16.14 0 0.22 1.08 3.02 2.4 6.2 1.32 3.19 3.6 8.69 5.05 12.21l2.66 6.41 15.58-9.59c8.57-5.27 15.59-10.3 15.59-11.18zm-351.16 11.44c7.512-1.03 9.105-1.89 9.977-5.36 1.361-5.43 0.011-8.62-4.09-9.7-2.861-0.75-3.263-0.06-2.867 4.92 0.508 6.41-3.36 8.29-4.905 2.39-0.854-3.27-1.236-3.3-9.229-0.82-4.586 1.43-10.528 3.07-13.204 3.65-3.928 0.86-4.679 1.76-3.893 4.69 0.535 1.99 0.984 4.55 0.997 5.68 0.016 1.46 2.662 1.15 9.149-1.08 5.019-1.73 13.148-3.7 18.065-4.37zm589.4 1.48c2.33-1.53 4.24-3.45 4.24-4.26 0-1.5-10.26-7.44-11.1-6.42-0.7 0.86 1.06 13.45 1.89 13.45 0.4 0 2.64-1.25 4.97-2.77zm-243.4-3.37c0-0.47-1.55-0.03-3.44 0.98-1.9 1.02-3.44 2.23-3.44 2.7 0 0.48 1.54 0.04 3.44-0.98 1.89-1.01 3.44-2.22 3.44-2.7zm23.11-1.65c1.84-1.39 2.61-2.5 1.72-2.47s-3.12 1.19-4.96 2.58c-1.83 1.39-2.61 2.5-1.72 2.47s3.13-1.19 4.96-2.58zm-14.52-3.51c0-0.47-1.54-0.03-3.43 0.98-1.9 1.02-3.44 2.23-3.44 2.71 0 0.47 1.54 0.03 3.44-0.99 1.89-1.01 3.43-2.22 3.43-2.7zm11.72-8.23c-2.05-2.97-3.87-5.63-4.06-5.9-0.18-0.27-2.39 0.44-4.9 1.59-5.3 2.42-5.02 6.04 0.41 5.25 3.96-0.58 5.16 2.25 1.56 3.7-1.3 0.52-0.98 0.92 0.81 1 2 0.09 2.61 1.04 1.88 2.93-0.95 2.49-0.58 2.47 3.48-0.19l4.55-2.98-3.73-5.4zm-370.28-0.94c3.635-2.05 5.296-4.41 5.624-7.99 0.387-4.22 0.158-4.57-1.362-2.09-1.005 1.65-5.471 5.8-9.924 9.24-5.926 4.57-6.944 5.91-3.797 5 2.365-0.68 6.621-2.56 9.459-4.16zm299.88-7.97c1.09-1.1-20.37 0.86-22.47 2.05-0.65 0.37-0.41 2.89 0.53 5.61l1.72 4.93 9.58-5.77c5.27-3.17 10.06-6.24 10.64-6.82zm221.13-4.38c2.73-8.31 3.54-13.06 2.37-13.79-1.24-0.76-1.2-2.21 0.1-4.65 2.79-5.21 2.33-7-1.54-5.99-3.27 0.86-3.32 0.66-0.87-4.03 2.42-4.64 2.37-4.96-0.96-5.49-2.44-0.39-3.03-1.19-1.92-2.58 0.88-1.11 2.11-3.65 2.72-5.65 1.01-3.28 0.52-3.59-5.1-3.14-3.42 0.27-6.69 0.96-7.27 1.54-0.57 0.57 0.36 7.78 2.07 16.02 1.71 8.23 3.53 20.99 4.03 28.36 0.5 7.36 1.21 13.09 1.57 12.73s2.52-6.36 4.8-13.33zm72.21 6.82c8.68-10.32 10.04-14.59 7.62-24.02-2.57-10.05-4.71-10.53-18.43-4.14-8.98 4.18-11.28 8.59-4.48 8.59 4.43 0.01 7.58 6.95 7.61 16.77 0.02 4.49 0.74 8.17 1.6 8.17s3.6-2.42 6.08-5.37zm-233.47-0.64l3.67-2.57-3.5-7.32c-1.92-4.03-3.76-7.62-4.09-7.98-0.72-0.8-11.02 3.34-11.02 4.43 0 1.73 9.01 16.01 10.1 16.01 0.64 0 2.82-1.16 4.84-2.57zm-368.16-6.14c5.061-2.89 9.652-5.99 10.202-6.88 1.819-2.94 7.423 1.66 7.987 6.56 0.51 4.43 1.359 3.76 13.442-10.53 7.094-8.4 14.968-17.94 17.499-21.2 2.53-3.27 12.59-14.43 22.355-24.81 9.77-10.38 17.99-19.52 18.27-20.32s-4.36-3.11-10.32-5.13l-10.83-3.68-5.159 5.71c-19.283 21.33-36.31 41.57-42.97 51.07-9.423 13.44-25.597 30.7-30.696 32.76-2.047 0.82-2.655 1.55-1.352 1.61 1.304 0.06 6.511-2.26 11.572-5.16zm325.9-1.38c2.25-1.76 7.44-4.89 11.52-6.97 7.57-3.84 8.38-6.21 3.26-9.45-2.35-1.48-4.62-0.09-12.37 7.56-5.22 5.15-9.49 9.98-9.49 10.72 0 2.25 2.75 1.52 7.08-1.86zm-10.52 0.79c0-0.39-2.29-5.8-5.08-12.04-4.68-10.41-5.52-11.34-10.38-11.34-4.81 0-5.12 0.33-3.4 3.53 1.81 3.4 2.77 8.4 3.19 16.68 0.17 3.41 1.11 3.87 7.93 3.87 4.26 0 7.74-0.32 7.74-0.7zm12.79-14.04l9.58-9.57-4.98-7.19c-9.13-13.19-11.68-14.63-32.38-18.36-10.49-1.89-20.31-3.91-21.82-4.49-1.63-0.63-2.74-0.16-2.74 1.15 0 2.93-8.26-4.86-11.26-10.61-1.48-2.85-5.67-5.84-11.44-8.19-5.02-2.05-11.44-4.92-14.28-6.39l-5.15-2.67 4.29 4.27c2.37 2.35 7.75 6.17 11.96 8.5 7.47 4.13 21.3 21.86 17.05 21.86-1.25 0-1.12 0.94 0.37 2.74 1.57 1.9 3.99 2.47 7.8 1.86 4.77-0.78 5.65-0.33 6.57 3.32 1.82 7.26 17.62 14.32 20.74 9.27 1.65-2.66 4.3-2.03 5.44 1.29 1.79 5.21 9.63 22.79 10.16 22.79 0.29 0 4.83-4.31 10.09-9.58zm210.45 3.51c-0.53-0.53-1.49 0.43-2.14 2.13-0.93 2.45-0.74 2.64 0.96 0.96 1.18-1.17 1.71-2.56 1.18-3.09zm-178.67-3.62c2.36-2.07-3.23-0.15-5.97 2.04-3.15 2.53-3.1 2.56 0.96 0.63 2.36-1.12 4.62-2.33 5.01-2.67zm-103.04-5.96c0-3.77-1.71-7.05-5.86-11.2-5.4-5.4-5.71-6.26-3.92-11 2.51-6.67 5.23-6.64 4.25 0.05-0.96 6.52 1.97 9.11 8.38 7.42 2.69-0.71 6.05-1.1 7.47-0.86 2.29 0.38 2.29 0.23 0-1.34-1.42-0.97-4.8-1.78-7.51-1.79-4.27-0.02-4.79-0.54-3.89-3.9 0.57-2.12 1.05-4.45 1.06-5.15 0.06-3.32 3.47-0.82 3.51 2.57 0.05 3.42 0.26 3.52 1.78 0.92 1.3-2.23 0.67-4.63-2.56-9.75-2.36-3.73-5.29-7.36-6.51-8.06-1.22-0.71-1.61-0.62-0.86 0.2 2.19 2.41-24.56 9.56-31.45 8.41-4.98-0.84-5.64-0.62-3.8 1.26 2.48 2.53 13.57 2.79 27.44 0.64 6.43-1 9.03-0.84 9.03 0.56 0 1.07-1.88 1.96-4.17 1.96-5.04 0-8.26 2.97-11.38 10.48-1.99 4.83-1.97 5.74 0.16 6.43 1.37 0.44 5.98 4.44 10.23 8.9 4.26 4.45 7.94 8.2 8.17 8.34 0.24 0.13 0.43-2.16 0.43-5.09zm98.54-3.33c0.75-0.62-2.93-9.68-8.18-20.12-7.05-14.03-12.46-22.07-20.7-30.79-6.14-6.49-10.69-10.25-10.1-8.36 0.58 1.89 3.09 5.26 5.57 7.49l4.52 4.05-4.25-0.98c-4.12-0.95-4.09-0.85 0.86 3.2 3.89 3.18 4.4 4.19 2.13 4.24-3.95 0.08-19.54-15.81-33.46-34.1-3.35-4.4-2.64-1.21 2.14 9.6 3.16 7.16 8.02 13.43 17.38 22.4 9.18 8.8 12.68 13.29 11.92 15.26-0.7 1.84 1.31 5.37 5.87 10.33 3.82 4.14 7.85 9.66 8.96 12.26 3.76 8.83 6.3 10.74 11.4 8.58 2.51-1.06 5.18-2.44 5.94-3.06zm141.93-22.12c0.82-5.61-0.87-8.88-3.98-7.68-2.08 0.79-2.24 1.57-0.73 3.4 1.09 1.3 1.55 3.96 1.04 5.91-0.59 2.26-0.19 3.31 1.09 2.89 1.11-0.37 2.27-2.4 2.58-4.52zm-189.39-19.87c-11.46-10.63-14-14.3-20.21-29.27-3.35-8.05-3.38-8.67-0.59-10.72 2.52-1.83 3.37-1.58 5.56 1.67 1.42 2.12 5.74 7.43 9.6 11.82s8.38 9.81 10.06 12.04c2.95 3.94 2.96 3.86 0.38-2.82-1.47-3.78-4.19-8.98-6.06-11.54-1.86-2.56-3.39-5.75-3.39-7.09s-4.11-11.24-9.13-22c-5.03-10.76-11.31-24.72-13.96-31.04-3.67-8.73-5.5-11.26-7.63-10.58-2.26 0.71-2.34 0.55-0.42-0.82 1.99-1.41 1.52-3.58-2.74-12.68l-5.13-10.97-16.18 1.16c-8.9 0.63-19.46 0.8-23.48 0.36-4.02-0.43-7.31-0.33-7.31 0.24s4.23 11.13 9.41 23.47c5.18 12.35 10.69 27.61 12.25 33.91 1.56 6.31 3.89 13.4 5.19 15.77 1.29 2.36 4.95 10.87 8.13 18.91 6.73 17 18.17 36.46 21.82 37.12 2.2 0.4 8.51 1.62 37.78 7.31 9.78 1.89 8.5-2.7-3.95-14.25zm220.64 14.54c1.9-1.23 1.98-1.68 0.31-1.7-1.47-0.01-1.88-1.22-1.17-3.45 0.87-2.75 0.49-3.2-1.91-2.28-2.29 0.88-2.73 0.48-1.88-1.73 0.61-1.6 0.28-2.88-0.75-2.88-1.01 0-1.39-1.18-0.84-2.62 0.81-2.12 0.37-2.28-2.29-0.86-3.01 1.61-3.08 2.18-0.83 6.49 1.35 2.6 2.46 6.08 2.47 7.74 0.01 3.32 2.91 3.86 6.89 1.29zm-38.69-5.17c0.58-0.94 0.41-1.71-0.38-1.71s-3.98-2.32-7.09-5.16c-5.72-5.23-8.87-6.49-8.87-3.54 0 0.9 2.13 2.66 4.73 3.93 3.41 1.65 4.71 3.55 4.67 6.83-0.05 3.77 0.44 4.27 2.91 2.95 1.64-0.88 3.45-2.36 4.03-3.3zm28.8-16.82c-2.13-0.34-3.87-1.38-3.87-2.31 0-0.94-0.78-1.22-1.73-0.63s-2.84-0.04-4.19-1.39c-1.9-1.9-2-2.95-0.42-4.66 1.6-1.73 1.52-1.91-0.38-0.82-1.84 1.05-2.19 0.52-1.48-2.2 0.71-2.73 0.3-3.34-1.75-2.55-1.98 0.76-2.39 0.27-1.58-1.85 0.61-1.58 0.33-2.88-0.61-2.88-0.95 0-2.17 1.16-2.71 2.58-0.55 1.42-2.07 2.58-3.39 2.58-2.94 0-3.08-2.06-0.33-4.81 1.49-1.49 1.51-2.07 0.1-2.07-1.08 0-2.44 0.78-3.02 1.72-1.64 2.65-4.79 2.04-3.74-0.72 0.52-1.34-0.28-2.9-1.78-3.48-3.6-1.38-4.22-0.53-4.54 6.12-0.23 4.96 0.4 5.81 5.45 7.29 7.34 2.16 15.78 10.04 15.78 14.74 0 2.27-1.56 4.25-4.13 5.22-2.27 0.87-4.59 2.32-5.15 3.23s5.36-1.53 13.16-5.43c10.78-5.38 13.25-7.22 10.31-7.68zm-503.46-16.49c3.093-2.26 3.052-2.42-0.961-3.67-9.237-2.89-19.166-11.97-24.39-22.32-6.394-12.67-7.821-26.59-4.275-41.73 1.384-5.91 2.146-10.75 1.692-10.75s-3.724 1.63-7.2673 3.62c-4.7813 2.69-7.3905 5.91-10.123 12.51-10.078 24.31 3.3516 54.61 27.337 61.66 11.903 3.5 14.019 3.58 17.987 0.68zm12-13.52c4.651-6.91 6.065-10.77 6.065-16.56 0-7.38-0.105-7.52-4.918-6.56-2.705 0.54-8.998 1.53-13.985 2.19-7.361 0.97-8.917 0.75-8.27-1.2 0.506-1.53 4.729-2.84 11.558-3.6 5.919-0.67 14.46-2.44 18.981-3.94 13.249-4.4 37.548-24.19 25.671-20.91-11.956 3.31-12.296 3.34-11.502 0.96 0.433-1.3 3.823-3.06 7.533-3.91 3.711-0.86 6.986-1.75 7.278-2s-0.593-3.14-1.967-6.42l-2.497-5.98-9.119 1.44c-5.015 0.79-9.431 1.13-9.814 0.75-1.907-1.91 2.229-4.37 7.349-4.37 8.599 0 11.22-1.55 11.194-6.63-0.056-10.85-1.145-11.88-13.887-13.16-7.235-0.72-11.457-1.86-10.808-2.91 0.658-1.07 5.259-1.28 12.032-0.55 6.032 0.64 10.977 0.53 10.99-0.25 0.013-0.79 0.487-3.16 1.053-5.27 0.826-3.08 0.058-4.22-3.893-5.77-2.707-1.06-8.31-2.18-12.451-2.48-14.515-1.08-12.955-7.44 2.8-11.41 4.02-1.02 7.309-2.02 7.309-2.24 0-0.21-1.218-2.83-2.706-5.81-2.704-5.42-5.48-6.71-8.559-3.97-0.898 0.8-6.516 3.23-12.483 5.4-13.314 4.86-18.541 11.05-21.131 25.07-2.447 13.24-0.705 26.11 5.756 42.53 5.422 13.78 9.941 18.78 19.021 21.06 2.543 0.64 4.624 1.85 4.624 2.7 0 3.22-8.369 1.32-14.85-3.37-5.474-3.97-7.823-7.6-12.296-19.03-3.041-7.77-5.529-15.59-5.529-17.38 0-2.98-0.329-2.92-3.967 0.72-2.182 2.18-4.917 4.28-6.079 4.67-5.696 1.9-10.547 30.28-7.255 42.45 2.745 10.14 10.849 22.41 17.701 26.8 9.367 5.99 12.431 7.73 13.742 7.84 0.684 0.06 3.973-3.95 7.309-8.9zm-4.015-60.4c-5.44-5.61-5.454-5.67-2.941-12.8 2.267-6.42 2.246-7.31-0.21-8.68-1.825-1.02-2.448-3.03-1.875-6.03 0.473-2.47-0.188-8.53-1.469-13.47-1.494-5.76-1.735-9.57-0.673-10.64 1.83-1.83 1.956-1.53 5.135 12.18 1.143 4.93 1.55 9.82 0.904 10.87-0.645 1.04 0.246 2.93 1.981 4.2 2.784 2.04 2.905 3 1.032 8.18-2.98 8.24-2.715 9.98 2.318 15.23 2.442 2.55 3.725 5.08 2.852 5.62-0.874 0.54-4.048-1.56-7.054-4.66zm81.234 48.08c11.47-2.26 26.27-5.07 32.89-6.24 6.62-1.16 17.84-3.55 24.94-5.31 7.09-1.75 15.7-3.2 19.13-3.22l6.24-0.02 0.81-9.83c0.45-5.41 0.46-11.21 0.01-12.9-0.89-3.42-6.61-4.2-7.66-1.04-1.2 3.6-4.78-0.37-4.78-5.3 0-2.63-1.08-8.39-2.41-12.79-1.5-5.01-1.78-8.41-0.74-9.05 2.48-1.54 3.04-0.4 5.25 10.68 1.12 5.57 2.15 10.34 2.3 10.6 0.14 0.26 2.12-0.28 4.38-1.18 2.99-1.2 3.3-1.68 1.11-1.76-1.65-0.06-3.01-0.5-3.01-0.99 0-0.72 2.52-5.65 4.75-9.31 0.25-0.4 1.47 0.66 2.71 2.36 2.17 2.97 2.59 2.95 10.27-0.44 4.6-2.04 8.43-2.85 9.01-1.92 0.55 0.89-0.21 2.08-1.68 2.65-4.26 1.63 1.73 10.41 7.95 11.65 2.71 0.54 6.84 3.05 9.18 5.57 2.33 2.52 4.25 4.15 4.25 3.61 0-1.71-15.86-36.44-17.42-38.14-3.04-3.31-1.3-4.38 7.1-4.38 7.97 0 8.6-0.31 8.6-4.2 0-2.31 0.77-4.68 1.72-5.26 1-0.62 1.72 1.13 1.72 4.2v5.26h12.03c6.62 0 12.04-0.67 12.04-1.49 0-6.44-34.78-39.48-36.41-34.59-0.33 0.98-6.07-0.93-12.89-4.29-10.74-5.29-17.29-7.22-26.04-7.67-1.24-0.06-1.77-0.89-1.19-1.83 3.41-5.52-8.31 3.27-14.33 10.75-2.12 2.63-0.73 2.77 18.23 1.82 11.3-0.57 22.61-0.51 25.16 0.12 9.36 2.35 2.2 4.25-16.61 4.41-24.43 0.21-29.37 1.41-46.26 11.22-19.3 11.22-20.91 8.72-2.3-3.55 12.22-8.06 15.82-11.38 17.12-15.77 0.91-3.06 2.45-5.59 3.44-5.62s4.01-2 6.72-4.38c4.78-4.21 4.88-4.65 3.68-15.85-2.94-27.47-3.43-29.59-6.92-29.59-5.31 0-47.07 11.91-78.76 22.47-14.02 4.67-26.593 8.49-27.947 8.49-2.995 0-3.171 2.04-0.413 4.8 1.126 1.12 2.57 8.44 3.21 16.25 0.747 9.12 2.721 17.89 5.517 24.52 3.823 9.07 4.563 14.28 6.123 42.99 1.58 28.95 5.75 57.62 8.39 57.62 0.51 0 10.32-1.86 21.79-4.13zm52.67-50.82c0-10.18 9.41-33.33 16.38-40.3 2.69-2.69 33.4-13.1 38.64-13.1 1.9 0 3.45 0.78 3.45 1.72 0 0.95-1.26 1.72-2.81 1.72-4.48 0-33.9 10.45-36.92 13.12-4.41 3.89-11.47 18.09-12.73 25.58-1.71 10.21-2.63 12.89-4.41 12.89-0.88 0-1.6-0.73-1.6-1.63zm23.8-19.48c2.6-3.19 29.35-14.01 30.88-12.49 1.62 1.63-1.63 3.52-14.27 8.29-20.47 7.73-19.22 7.42-16.61 4.2zm-51.32-6.21c0-1.76 24.95-13.95 28.56-13.95 3.81 0 2.78 3.09-1.47 4.4-2.13 0.65-8.68 3.41-14.55 6.13-11.72 5.43-12.54 5.66-12.54 3.42zm174.32 65.78c1.92-14.01 1.19-24.87-2.51-37.28-4.31-14.48-15.78-27.96-25.35-29.8l-5.73-1.1 4.43 4.78c7.7 8.31 13.31 22.41 13.23 33.27-0.05 7.64 1.31 12.77 6.33 23.9 3.52 7.8 6.87 14.18 7.45 14.19s1.55-3.57 2.15-7.96zm254.43 3.99l4.36-2.26-4.69-8.49c-7.65-13.83-9.48-16.22-12.47-16.22-1.57 0-3.26 1.08-3.76 2.4-0.74 1.92-2.51 2.06-8.95 0.69-6.47-1.39-9.52-1.14-15.83 1.27-6.57 2.51-7.34 3.25-4.81 4.66 1.65 0.92 5.91 1.21 9.47 0.64 5.05-0.8 7.5-0.23 11.12 2.61 3.29 2.6 4.1 4.18 2.79 5.49-3.43 3.43-1.87 4.52 5.99 4.18 7.53-0.33 12.18 2.42 10.01 5.92-1.27 2.07 1.86 1.66 6.77-0.89zm-39.23-30.41c0.59-0.94-0.14-1.72-1.62-1.72-1.47 0-2.68 0.78-2.68 1.72 0 0.95 0.73 1.72 1.62 1.72s2.1-0.77 2.68-1.72zm-239.65-21.14c-9.64-19.92-12.72-20.28-4.12-0.49 5.56 12.78 8.35 17.57 8.73 14.98 0.3-2.09-1.77-8.61-4.61-14.49zm-209.23-4.22c-0.939-15.87-4.73-36.55-6.7-36.55-1.994 0 1.04 41.16 3.511 47.63 1.555 4.07 3.155 7.4 3.555 7.4 0.405 0 0.235-8.32-0.366-18.48zm195.22-17.26c0-1.35-9.02-7.25-11.09-7.25-0.61 0 0.28 1.91 1.98 4.24 2.89 3.97 9.11 6.02 9.11 3.01zm-206.37-20.15c0-4.86-3.444-5.57-11.496-2.38l-4.842 1.92 6.879 2.2c9.541 3.05 9.459 3.07 9.459-1.74zm437.35 0.79c6.8-0.99 14.08-2.51 16.18-3.38 6.15-2.56 29.23-40.43 35.64-58.46 1.51-4.26 3.23-14.05 3.82-21.76 1.05-13.8 0.99-14.1-3.91-18.92-2.73-2.69-5.75-6.37-6.69-8.18-0.95-1.81-3.21-3.5-5.02-3.76s-5.3-1.93-7.74-3.71-7.73-5.07-11.75-7.3c-4.02-2.24-7.31-4.66-7.31-5.37s-1.35-1.28-3.01-1.27c-1.65 0.01-6.05-0.76-9.78-1.72s-8.86-1.33-11.4-0.82-5.16 0.07-5.8-0.98c-0.82-1.32-1.97-1.11-3.77 0.69-1.43 1.42-5.06 2.7-8.06 2.83-14.75 0.63-19.92 1.77-29.66 6.57-5.81 2.86-12.64 6.83-15.19 8.84-4.37 3.43-4.48 3.87-1.97 7.7 6.13 9.34 11.25 19.65 11.22 22.56-0.04 2.98-11.58 12.56-15.14 12.56-1.75 0-10.65-13.52-12.96-19.69-1.1-2.93-1.89-2.39-6.33 4.3-5.1 7.69-6.57 13.67-3.37 13.67 1.53 0 8.85 7.31 34.48 34.4 4.03 4.25 6.05 6.13 4.49 4.17-4.23-5.32-14.91-27.9-14.8-31.3 0.09-2.86 7.41-9.77 12.2-11.54 4.61-1.69 7.8 2.82 25.9 36.59 4.84 9.04 12.58 22.14 17.19 29.1 4.61 6.95 7.92 13.4 7.35 14.31-1.29 2.08-0.03 2.07 15.19-0.13zm-43.55-12.26c-11.75-9.82-17.18-10.2-17.18-1.21 0 2.99 0.72 4.7 1.72 4.08 0.98-0.6 1.81 1.03 1.92 3.77 0.11 2.66 0.54 3.57 0.95 2.04 0.76-2.88 9.17-4.06 9.17-1.29 0 0.82 1.5 1.5 3.34 1.5s3.84 0.81 4.45 1.8c0.77 1.24 1.86 1.19 3.49-0.16 1.93-1.61 0.46-3.58-7.86-10.53zm-394.59-12.64c-0.621-4.97-2.264-10.48-3.651-12.24-2.266-2.88-2.438-2.03-1.692 8.31 0.838 11.63 4.619 21.82 5.873 15.83 0.33-1.57 0.091-6.93-0.53-11.9zm-25.866 4.33c-0.585-0.94-1.404-1.72-1.821-1.72s-0.759 0.78-0.759 1.72c0 0.95 0.82 1.72 1.822 1.72 1.001 0 1.343-0.77 0.758-1.72zm8.128-0.96c1.984-1.98-35.047-33.43-39.365-33.43-1.264 0-2.298 0.48-2.298 1.07 0 1.95 37.114 33.02 39.697 33.24 0.552 0.05 1.437-0.35 1.966-0.88zm6.447-6.89c-4.133-10.87-1.578-16.12 8.41-17.29 6.415-0.75 6.561-2.07 1.272-11.54-9.905-17.72-30.276-71.16-30.276-79.42 0-1.3-0.621-2.74-1.379-3.21-3.16-1.95 7.127 60.86 12.357 75.46 5.077 14.17 5.136 18.59 0.32 23.79-2.43 2.62-4.399 5.3-4.375 5.96 0.05 1.37 12.201 10.5 14.101 10.6 0.686 0.04 0.493-1.92-0.43-4.35zm391.28 2.69c-0.58-0.94-1.4-1.71-1.82-1.71-0.41 0-0.76 0.77-0.76 1.71 0 0.95 0.82 1.72 1.83 1.72 1 0 1.34-0.77 0.75-1.72zm-247.51-6.05c-1.83-1.38-3.74-2.09-4.25-1.57-1.08 1.08 3.29 4.15 5.84 4.1 0.95-0.01 0.23-1.15-1.59-2.53zm-6.15-2.36c0-0.84-1.16-1.98-2.58-2.53-2.62-1-3.52 0.83-1.43 2.92 1.64 1.64 4.01 1.41 4.01-0.39zm-92.8-22.97c9.01-3.24 27.35-8.82 40.74-12.4 23.81-6.37 24.29-6.6 22.05-10.17-2.12-3.36-12.2-44.44-13.34-54.39-0.79-6.85-3.93-3.3-4.01 4.54-0.05 4.76-1.62 9.44-4.73 14.15-2.56 3.87-4.66 7.81-4.66 8.76 0 5.3-16.49 3.1-25.84-3.45-4.32-3.03-4.37-3.01-9.89 3.56-3.05 3.63-5.54 8.16-5.54 10.07 0 4.29-7.76 12.96-10.23 11.44-1-0.62-1.81-2.09-1.81-3.29 0-1.19-2.02-3.92-4.482-6.06l-4.482-3.9-4.959 4.75c-2.727 2.62-5.171 4.42-5.43 4.02s-3.054-11.18-6.21-23.95c-9.255-37.44-8.649-35.95-16.187-39.8-3.705-1.89-6.99-3.18-7.299-2.87-1.001 1 9.325 36.08 16.607 56.43 7.044 19.68 11.896 30.47 19.837 44.14 4.758 8.18 2.284 8.31 29.865-1.58zm297.22-7.45c0.94 0.58 2.23 0.22 2.87-0.81 0.63-1.02 2.23-1.45 3.55-0.94 4.63 1.78 2.35-2.16-4.29-7.42-7.05-5.59-9.62-6.4-11.35-3.61-0.62 1.01 0.14 1.25 1.86 0.59 2.03-0.78 2.64-0.39 2.04 1.31-0.47 1.33-0.17 3.78 0.68 5.43 0.97 1.88 0.85 4.47-0.32 6.88-1.75 3.61-1.71 3.66 0.68 0.69 1.41-1.75 3.33-2.71 4.28-2.12zm-325.12-36.17c0.297-0.17-2.263-5.88-5.689-12.68-7.35-14.6-7.475-20.04-0.441-19.3 4.061 0.42 4.729-0.13 4.729-3.93 0-5.7 3.72-7.05 9.319-3.38 6.36 4.17 5.49 1.78-1.04-2.88-3.28-2.33-8.292-4-12.47-4.15-3.843-0.13-8.653-0.78-10.689-1.43-4.149-1.34-4.147-1.32 2.911 25.59 1.737 6.62 4.025 15.38 5.084 19.47 1.712 6.61 2.251 7.19 4.836 5.22 1.6-1.22 3.152-2.36 3.45-2.53zm33.708-44.95c5.55-20.42 5.55-19.04-0.04-13.95-5.63 5.13-12.97 9.04-20.24 10.79l-4.95 1.19 3.84 4.08c3.83 4.08 13.06 9.39 16.45 9.46 0.98 0.02 3.21-5.18 4.94-11.57zm41.15-1.76c-1.15-4.59-9-19.04-16.21-29.84-2.29-3.43-4.99-7.64-6-9.35-1.73-2.93-2.2-2.84-7.9 1.51-3.33 2.54-7.73 4.62-9.77 4.62s-3.7 0.59-3.7 1.31-1.73 2.08-3.83 3.01c-2.11 0.93-5.99 4.93-8.63 8.88-3.71 5.55-6.74 7.82-13.38 10.03-10.595 3.52-9.639 6.81 1.49 5.15 13.41-2.02 24.84-9.29 31.75-20.21 4.03-6.37 6.47-5.97 5.35 0.86-1.16 6.99-3.77 18.73-5.12 22.99-0.56 1.78 0.94 0.19 3.32-3.53 6.88-10.72 18.2-18.26 21.33-14.2 0.87 1.12 3.02 7.18 4.78 13.46 2.17 7.75 3.91 11.15 5.41 10.57 1.44-0.55 1.83-2.38 1.11-5.26zm-114.77 0.08c-0.571-0.57-0.977 0.44-0.903 2.26 0.083 2 0.49 2.41 1.039 1.04 0.497-1.25 0.436-2.73-0.136-3.3zm26.972-9.21c2.253-1.03 5.496-4.32 7.206-7.31 1.711-2.99 4.977-7.96 7.258-11.04 3.55-4.79 4.651-5.33 7.638-3.73 1.92 1.03 3.84 1.52 4.27 1.09 1.6-1.6-3.87-10.85-10.099-17.11-3.547-3.56-6.449-7.57-6.449-8.92 0-1.34-2.031-4.86-4.514-7.81-2.482-2.95-4.035-5.84-3.45-6.42 1.752-1.76 8.248 5.06 11.347 11.9 1.593 3.52 5.008 8.06 7.585 10.09 2.58 2.03 5.9 6.69 7.37 10.37 2.71 6.78 4.62 8.16 6.67 4.84 0.62-1.01 2.32-1.38 3.76-0.83 2.27 0.87 2.25 0.44-0.16-3.23-2.53-3.87-2.32-9.39 0.38-9.71 0.61-0.07 4.58-0.52 8.82-0.99s8.67-1.64 9.84-2.62c3.96-3.28 4.23-12.35 0.76-25.5-1.87-7.09-3.87-15.6-4.44-18.91s-4.48-12.95-8.68-21.42c-7.6-15.32-8.76-21.1-2.58-12.95l3.24 4.27-1.85-7.31c-1.62-6.41-2.43-7.31-6.65-7.31-3.55 0-6.22-1.79-10.25-6.87-3-3.79-6.11-6.88-6.93-6.88-0.81 0-2.847 2.32-4.523 5.16-3.123 5.28-6.896 7.19-5.131 2.6 0.85-2.22 0.248-2.26-4.488-0.33-4.33 1.77-6.847 5.03-12.072 15.65-7.464 15.17-10.599 16.41-4.691 1.85 2.139-5.27 3.401-10.07 2.804-10.66-1.446-1.45-1.272-1.84-7.068 15.73-5.705 17.29-10.664 24.55-15.5 22.69-2.92-1.12-2.884-1.43 0.589-5.13 2.034-2.16 3.674-4.66 3.645-5.54-0.029-0.89-0.841-0.25-1.805 1.4-2.125 3.65-6.741 3.99-6.741 0.5 0-1.38-1.648-4.05-3.661-5.93-2.052-1.91-3.224-4.54-2.667-5.99 0.624-1.63-0.277-2.99-2.431-3.68-2.426-0.77-3.119-2.04-2.379-4.37 0.791-2.5 0.392-3.04-1.648-2.26-1.755 0.67-2.692 0.07-2.692-1.73 0-1.62-1.427-2.77-3.44-2.77-1.91 0-3.439-1.14-3.439-2.58 0-1.41-0.858-2.57-1.906-2.57-1.197 0-1.486-1.68-0.777-4.5 3.951-15.75 2.898-17.92-4.9-10.12-4.396 4.39-8.656 5.52-10.374 2.74-1.3428-2.17-7.4058-0.33-8.526 2.59-0.6313 1.64 0.3561 2.41 3.1099 2.41 8.0747 0 10.207 8.44 2.2048 8.73-3.1089 0.11-2.8656 0.45 1.3913 1.95 2.8375 1 6.0362 2.51 7.108 3.35 1.24 0.97 2.315 0.58 2.956-1.09 1.714-4.47 4.656-2.98 14.38 7.26 12.299 12.96 13.505 15.27 9.333 17.88-2.613 1.63-2.994 3.03-1.88 6.91 1.52 5.3 2.308 4.82-12.98 8-8.515 1.78-18.748-0.56-17.435-3.98 0.5457-1.42-0.4963-2.86-2.554-3.51-2.1249-0.67-3.1048-2.07-2.5209-3.59 0.52541-1.37-0.1397-2.91-1.478-3.42-1.3383-0.52-2.3445-2.23-2.2361-3.81s-0.3713-5.1-1.0661-7.82c-1.1428-4.48-0.9077-4.86 2.4619-3.98 3.6702 0.96 3.6652 0.91-0.3409-3.37l-4.0663-4.34-1.0114 14.34c-1.0863 15.4 0.2401 22.08 4.3867 22.08 3.7777 0 10.01 10.99 14.613 25.78 6.892 22.14 27.791 48.35 46.645 58.49 9.977 5.37 16.165 6.27 22.708 3.29zm12.229-23.57c-2.002-1.31-9.284-21.68-9.284-25.98 0-4.13 2.581-0.12 5.97 9.28 1.704 4.73 4.291 9.97 5.747 11.65 2.82 3.25 0.904 7.23-2.433 5.05zm-43.28-5.86c0.377-1.13 2.875-2.64 5.553-3.35 5.524-1.48 14.685-9.57 14.685-12.97 0-1.24 1.161-2.26 2.579-2.26 1.419 0 2.58 0.75 2.58 1.66 0 2.76-10.503 13.83-15.647 16.49-5.846 3.02-10.685 3.24-9.75 0.43zm-1.259-13.42c0.585-0.94 2.03-1.72 3.212-1.72 1.183 0 3.641-1.09 5.463-2.42 2.935-2.15 2.432-2.24-4.4-0.81-13.726 2.87-27.845 3.43-27.061 1.08 0.715-2.14 35.545-16.03 42.788-17.06 5.7-0.81 6.08 4.15 0.728 9.5-2.416 2.42-4.392 5.04-4.392 5.82 0 2.22-9.558 7.33-13.695 7.33-2.038 0-3.227-0.77-2.643-1.72zm55.322-25.22c-2.65-2.64-0.75-3.63 5.38-2.81 5.29 0.71 7.54 0.03 11.8-3.56 6.78-5.7 8.95-3.68 2.87 2.67-3.63 3.79-6.2 4.85-11.78 4.85-3.92 0-7.64-0.52-8.27-1.15zm-5.879-8.64c0-4.97 9.439-18.12 18.459-25.71 5.98-5.03 9.16-4.24 4.34 1.09-2 2.21-2.36 3.45-0.99 3.45 1.17 0-0.4 3.29-3.5 7.31-9.62 12.51-9.57 12.43-6.7 10.82 1.42-0.79 4.32-3.01 6.44-4.92 2.13-1.91 4.45-2.9 5.16-2.18 2.05 2.05-9.5 11.33-14.11 11.33-2.29 0-4.65 0.77-5.23 1.72-1.967 3.18-3.869 1.75-3.869-2.91zm61.249 52.35c-2.92-7.8-6.85-18.68-8.75-24.17-1.89-5.5-3.83-9.6-4.31-9.12-0.47 0.48-0.11 3.04 0.82 5.69 0.92 2.66 1.07 6.47 0.33 8.47-1.02 2.76 0.75 7.21 7.34 18.48 4.77 8.16 8.95 14.84 9.28 14.84s-1.79-6.39-4.71-14.19zm-136.2-7.32c-4.867-6.92-9.473-12.2-10.235-11.73-0.761 0.47-2.6567-0.18-4.2111-1.44-2.4904-2.02-2.6564-1.89-1.3966 1.14 0.7864 1.89 1.5117 5.76 1.6118 8.6 0.1516 4.3 0.9741 5.25 4.9109 5.7 5.834 0.67 6.445 5.48 0.697 5.48-6.0233 0-10.12-5.73-11.055-15.46-0.6756-7.04-1.4283-8.62-4.1021-8.62-5.327 0-5.561 4.61-0.7352 14.47 6.402 13.09 11.788 16.19 26.069 15.04l7.294-0.59-8.848-12.59zm-14.909-29.23c0-2.67-0.9745-4.3-2.5796-4.3-3.0511 0-3.1769 0.83-0.7994 5.28 2.3931 4.47 3.379 4.18 3.379-0.98zm59.717-70.93c1.371-7.29 1.249-9.03-0.633-9.03-3.145 0-2.935-2.64 0.644-8.11 2.968-4.53 2.964-4.54-1.289-3.4-2.347 0.63-5.628 1.15-7.291 1.16-2.582 0.02-2.731 0.59-1.021 3.9 1.101 2.13 2.542 5.03 3.201 6.45s0.841 7.22 0.405 12.9c-0.7 9.11-0.496 10.01 1.746 7.73 1.396-1.42 3.303-6.64 4.238-11.6zm-71.432 0.11c-1.2414-0.5-2.7247-0.44-3.2962 0.14-0.5714 0.57 0.4443 0.97 2.2572 0.9 2.0034-0.08 2.4109-0.49 1.039-1.04zm63.281-30.312c0.015-0.765-0.747-0.913-1.693-0.328-0.946 0.584-1.708 2.371-1.694 3.971 0.023 2.509 0.257 2.549 1.694 0.328 0.917-1.419 1.679-3.206 1.693-3.971zm-198.63 514.69c-1.72-2.79-1.25-2.94 13.52-4.3 12.62-1.17 13.46-1.04 12.88 1.97-0.52 2.74-2.47 3.31-12.92 3.73-7.67 0.32-12.74-0.21-13.48-1.4zm0.26-6.46c-0.46-0.75-0.4-6.15 0.13-12.01l0.97-10.65 9.29-3.48c5.1-1.91 10.03-3.47 10.94-3.47s1.65-0.86 1.65-1.91c0-1.13-1.22-1.41-3.01-0.69-1.65 0.67-6.1 1.65-9.88 2.18-5.99 0.85-6.61 0.64-4.74-1.62 1.17-1.43 5.24-3.99 9.02-5.7 3.79-1.71 6.89-3.72 6.89-4.46 0-3.15-3.34-2.99-7.58 0.35-6.7 5.26-8.94 3.32-10.21-8.89-1.87-17.82-1.47-22.01 2.32-24.38 1.89-1.18 3.44-3.51 3.44-5.17 0-14.48 14.51 27.4 17.73 51.15 0.12 0.94-0.39 6.39-1.14 12.09l-1.37 10.38-9.83 3.81c-10.58 4.1-13.32 4.57-14.62 2.47zm0.58-89.06c-0.92-2.42-1.67-5.13-1.67-6.02 0-0.88-0.78-1.6-1.72-1.6-0.95 0-1.72 1.5-1.72 3.33 0 1.84-0.7 3.78-1.56 4.31-0.91 0.56-1.17-6.04-0.62-15.97 1.1-20.07-0.85-29.78-9.88-49.29-6.87-14.85-22.88-39.57-31.42-48.55-2.92-3.06-4.7-6.16-3.96-6.88 1.75-1.71 12.99 10.96 21.59 24.31 3.71 5.77 7.43 11.28 8.25 12.24 3.91 4.54 15.7 32 17.51 40.78 1.12 5.42 2.73 10.29 3.58 10.81 3.65 2.26 10.53 32.56 7.97 35.12-2.87 2.86-4.53 2.18-6.35-2.59zm549.93-110.27c-1.65-0.44-3.01-1.56-3.01-2.5 0-2.44 9.06-1.04 9.9 1.53 0.71 2.16-1.27 2.43-6.89 0.97zm-608.19-23.49c-10.42-16.86-16.76-40.61-15.23-57.02 1.57-16.85 12.79-46.82 18.2-48.62 3.15-1.05 2.4 2.52-2.01 9.53-2.22 3.53-5.81 12.16-7.97 19.17-3.42 11.08-3.82 15.21-3.04 31.62 0.86 18.11 1.2 19.47 8.4 33.54 9.21 18 9.03 17.54 6.93 17.54-0.95 0-3.33-2.6-5.28-5.76zm13.59-3.79c0-3.3 5.12-13.43 6.22-12.32 1.17 1.16-3.37 14.99-4.92 14.99-0.71 0-1.3-1.2-1.3-2.67zm614.88-0.65c-0.54-0.88-0.2-2.09 0.76-2.69 3.01-1.86 1.91-7.47-1.69-8.61-1.89-0.6-3.44-1.81-3.44-2.7 0-3.28 4.79-1.42 11.32 4.4 6.51 5.8 6.63 6.09 3.4 8.6-3.75 2.92-8.85 3.41-10.35 1zm-589.55-4.97c-5.68-2.32-13.27-16.02-13.28-23.96 0-4.02 0.77-7.31 1.71-7.31 0.95 0 1.72 2.9 1.73 6.45 0.01 12.51 10.91 24.13 20.79 22.15 3.78-0.75 5.08-0.45 4.57 1.08-0.79 2.43-10.93 3.47-15.52 1.59zm2.25-18.3c-1.28-1.53-1.64-4.54-0.94-7.74 1.05-4.77 0.76-5.23-3.28-5.23-7.58 0-4.88-3.06 4.48-5.06 7.29-1.57 9.36-1.47 11.35 0.52 2.61 2.6 1.44 9.7-1.58 9.7-0.95 0-1.25-1.48-0.68-3.29 1.83-5.75-2.26-5.65-5.25 0.12-2.21 4.28-2.42 6.24-0.93 8.63 1.06 1.7 1.93 3.49 1.93 3.98 0 1.79-3.08 0.8-5.1-1.63zm24.02-12.38c0-2.12 8.94-12.85 9.9-11.89 1.53 1.52-5.29 13.02-7.72 13.02-1.2 0-2.18-0.51-2.18-1.13zm59.757-2.94c-4.406-3.4-3.734-5.26 3.067-8.51 7.627-3.63 10.567-3.79 7.766-0.42-1.131 1.36-1.806 4.27-1.5 6.45 0.662 4.74-4.594 6.13-9.333 2.48zm5.589-4.63c0-1-0.774-1.34-1.72-0.76-0.946 0.59-1.72 1.41-1.72 1.82 0 0.42 0.774 0.76 1.72 0.76s1.72-0.82 1.72-1.82zm-76.526 0.1c-3.43-3.78-14.18-4.71-19.79-1.71-2.02 1.08-3.6 1.11-4.23 0.08-1.67-2.7 5.19-5.25 14.15-5.25 6.57 0 9.23 0.88 12.15 3.98 2.05 2.19 3.74 4.52 3.74 5.16 0 2.26-2.93 1.16-6.02-2.26zm12.81-6.45c3.52-6.02 10.28-13.16 11.4-12.04 0.63 0.63-0.88 3.56-3.36 6.51s-4.52 6.08-4.52 6.96c0 0.87-1.18 1.58-2.64 1.58-2.03 0-2.23-0.68-0.88-3.01zm-5.07-13.82c0-1.94 1.26-2.52 17.92-8.28 13.64-4.72 13.03-4.6 13.03-2.62 0 0.82-5.84 3.57-12.99 6.1-7.14 2.54-14.1 5.04-15.47 5.57-1.37 0.52-2.49 0.18-2.49-0.77zm0-7.08c0-0.86-1.41-1.19-3.13-0.74s-4.1-0.35-5.29-1.78c-1.86-2.25 0.11-3.31 14.54-7.82 9.18-2.87 17.27-4.86 17.98-4.42 0.7 0.43 1.64 2.66 2.08 4.94 0.73 3.84-0.15 4.44-11.41 7.77-13.77 4.09-14.77 4.22-14.77 2.05zm-3.95-27.8c2.13-2.05 30.17-2.72 30.84-0.74 0.37 1.06-5.7 1.79-15.81 1.89-9.02 0.09-15.79-0.43-15.03-1.15z"/>
  </g>
  <metadata>
    <rdf:RDF>
      <cc:Work>
        <dc:format>image/svg+xml</dc:format>
        <dc:type rdf:resource="http://purl.org/dc/dcmitype/StillImage"/>
        <cc:license rdf:resource="http://creativecommons.org/licenses/publicdomain/"/>
        <dc:publisher>
          <cc:Agent rdf:about="http://openclipart.org/">
            <dc:title>Openclipart</dc:title>
          </cc:Agent>
        </dc:publisher>
        <dc:title>Restaurant</dc:title>
        <dc:date>2009-03-18T08:42:21</dc:date>
        <dc:description>clip art, clipart, couple, couple, drawing, drawing, image, media, people, people, png, public domain, remix, restaurant, restaurant, svg, table, table, waiter, waiter, </dc:description>
        <dc:source>http://openclipart.org/detail/22521/restaurant-by-warszawianka</dc:source>
        <dc:creator>
          <cc:Agent>
            <dc:title>warszawianka</dc:title>
          </cc:Agent>
        </dc:creator>
        <dc:subject>
          <rdf:Bag>
            <rdf:li>clip art</rdf:li>
            <rdf:li>clipart</rdf:li>
            <rdf:li>couple</rdf:li>
            <rdf:li>drawing</rdf:li>
            <rdf:li>image</rdf:li>
            <rdf:li>media</rdf:li>
            <rdf:li>people</rdf:li>
            <rdf:li>png</rdf:li>
            <rdf:li>public domain</rdf:li>
            <rdf:li>remix</rdf:li>
            <rdf:li>restaurant</rdf:li>
            <rdf:li>svg</rdf:li>
            <rdf:li>table</rdf:li>
            <rdf:li>waiter</rdf:li>
          </rdf:Bag>
        </dc:subject>
      </cc:Work>
      <cc:License rdf:about="http://creativecommons.org/licenses/publicdomain/">
        <cc:permits rdf:resource="http://creativecommons.org/ns#Reproduction"/>
        <cc:permits rdf:resource="http://creativecommons.org/ns#Distribution"/>
        <cc:permits rdf:resource="http://creativecommons.org/ns#DerivativeWorks"/>
      </cc:License>
    </rdf:RDF>
  </metadata>
</svg>
